<?xml version="1.0" encoding="utf-8"?>
    <!-- Generator: Adobe Illustrator 16.0.4, SVG Export Plug-In . SVG Version: 6.00 Build 0)  -->
    <!DOCTYPE svg PUBLIC "-//W3C//DTD SVG 1.1//EN" "http://www.w3.org/Graphics/SVG/1.1/DTD/svg11.dtd">
    <svg version="1.1" id="Black" xmlns="http://www.w3.org/2000/svg" xmlns:xlink="http://www.w3.org/1999/xlink" x="0px" y="0px" width="512px" height="512px" viewBox="0 0 512 512" enable-background="new 0 0 512 512" xml:space="preserve">
        <g id="twitch-alerts">
            <path fill-rule="evenodd" clip-rule="evenodd" d="M476.846,174.731c7.457,4.233,14.873,7.33,20.928,12.139
		c9.237,7.336,13.946,17.664,14.036,29.568c0.185,24.751,0.327,49.508-0.031,74.254c-0.316,21.74-17.835,39.314-39.52,40.124
		c-9.224,0.345-18.473-0.037-27.703,0.169c-3.725,0.081-4.715-1.443-4.711-4.917c0.074-48.396,0.075-96.793,0-145.19
		c-0.005-3.505,1.064-5.197,4.741-4.921c1.419,0.105,2.872-0.249,4.233-0.386c4.026-30.841-7.146-59.442-32.535-77.168
		c-13.229-9.236-28.012-13.763-44.238-13.75c-77.03,0.06-154.058-0.073-231.086,0.066c-43.409,0.079-77.162,33.804-77.78,77.271
		c-0.032,2.216,0.172,4.452-0.052,6.646c-0.506,4.967,0.343,8.357,6.614,7.576c0.913-0.114,2.432,1.995,3.095,3.355
		c0.511,1.05,0.13,2.538,0.13,3.831c0.001,46.734,0.003,93.469-0.001,140.202c0,7.311-0.016,7.322-7.182,7.328
		c-7.943,0.006-15.888,0.118-23.828-0.047c-22.398-0.469-40.336-17.569-40.825-39.974c-0.544-24.924-0.47-49.876-0.001-74.804
		c0.339-18.041,12.202-32.713,29.481-38.169c1.741-0.55,3.496-1.054,5.294-1.595c0.468-8.969,0.504-17.833,1.459-26.598
		c5.595-51.31,49.359-91.404,100.967-91.652c78.689-0.379,157.383-0.366,236.071-0.005c51.529,0.236,94.981,39.741,100.929,90.982
		C476.368,158.006,476.415,167.059,476.846,174.731z M14.284,251.939c-0.008,0-0.017,0-0.024,0c0,11.453-0.026,22.906,0.01,34.357
		c0.02,6.411,2.548,10.024,6.949,10.128c4.55,0.107,7.215-3.695,7.269-10.386c0.014-1.663,0.004-3.325,0.004-4.988
		c0.002-20.688-0.057-41.376,0.032-62.064c0.045-10.429,5.318-16.437,15.217-17.779c5.936-0.805,8.88-3.704,8.28-8.153
		c-0.603-4.475-4.225-6.586-10.188-5.94c-15.411,1.672-27.163,14.511-27.502,30.47C14.088,229.03,14.284,240.486,14.284,251.939z
		 M498.897,252.086c-0.027,0-0.054,0-0.081,0c0-11.985,0.325-23.981-0.082-35.953c-0.533-15.68-14.208-28.972-29.299-29.176
		c-4.495-0.061-7.814,1.81-8.311,6.322c-0.503,4.556,2.391,7.05,6.824,7.811c12.621,2.166,16.882,7.244,16.895,20.171
		c0.019,21.943-0.016,43.887,0.025,65.83c0.012,5.963,2.694,9.388,7.057,9.323c4.335-0.062,6.93-3.495,6.957-9.479
		C498.932,275.32,498.897,263.703,498.897,252.086z" />
            <path fill-rule="evenodd" clip-rule="evenodd" d="M152.758,392.984c-4.994,0-9.031,0.02-13.066-0.003
		c-31.665-0.177-55.445-23.646-55.556-55.352c-0.179-50.986-0.066-101.972-0.039-152.958c0.004-7.385-0.417-14.845,0.445-22.141
		c3.409-28.833,25.864-48.652,55.089-48.815c27.894-0.155,55.79-0.039,83.684-0.04c49.138,0,98.277-0.018,147.416,0.006
		c35.054,0.019,58.017,22.931,58.033,57.927c0.027,55.235,0.062,110.47-0.022,165.705c-0.043,28.578-18.828,50.559-46.95,55.111
		c-3.438,0.557-6.989,0.539-10.489,0.541c-45.074,0.035-90.148,0.067-135.223-0.05c-3.997-0.011-6.861,1.08-9.712,3.979
		c-16.197,16.455-32.653,32.654-48.916,49.047c-4.661,4.699-9.781,7.552-16.338,4.793c-6.716-2.828-8.471-8.586-8.398-15.416
		C152.861,421.504,152.758,407.686,152.758,392.984z M179.251,405.011c0.487,0.242,0.974,0.484,1.459,0.728
		c9.969-10.067,20.239-19.86,29.796-30.307c5.994-6.553,12.673-8.995,21.475-8.939c47.089,0.301,94.181,0.19,141.271,0.108
		c17.228-0.029,29.084-11.719,29.107-28.733c0.079-56.324,0.076-112.65,0.003-168.973c-0.023-16.959-11.654-28.646-28.538-28.659
		c-78.3-0.06-156.6-0.062-234.899,0.004c-16.64,0.014-28.367,11.702-28.387,28.231c-0.07,56.508-0.067,113.017-0.003,169.527
		c0.019,16.696,11.857,28.409,28.676,28.613c8.125,0.099,16.253-0.077,24.375,0.062c10.758,0.184,15.552,5.042,15.651,15.713
		C179.308,389.927,179.251,397.469,179.251,405.011z" />
            <path fill-rule="evenodd" clip-rule="evenodd" d="M347.775,253.317c0.001,8.862,0.079,17.724-0.017,26.585
		c-0.177,16.204-11.996,28.48-27.156,28.338c-15.016-0.143-26.671-12.159-26.836-28.099c-0.183-17.722-0.178-35.449-0.002-53.17
		c0.16-16.058,11.693-27.87,26.877-27.935c15.396-0.066,26.953,11.926,27.118,28.249
		C347.846,235.961,347.775,244.639,347.775,253.317z M314.91,212.487c-8.304,0.116-15.517,7.334-15.572,15.585
		c-0.057,8.52,7.33,15.74,15.994,15.637c8.389-0.1,15.529-7.216,15.567-15.51C330.938,219.73,323.446,212.368,314.91,212.487z" />
            <path fill-rule="evenodd" clip-rule="evenodd" d="M219.147,253.643c0.002,8.862,0.12,17.726-0.023,26.584
		c-0.257,15.855-11.974,27.953-26.951,28.014c-14.935,0.062-26.894-12.068-27.059-27.877c-0.186-17.906-0.199-35.818,0.006-53.724
		c0.184-15.925,11.982-27.699,27.195-27.605c14.963,0.093,26.44,11.744,26.791,27.47
		C219.31,235.548,219.144,244.598,219.147,253.643z M186.875,243.7c8.422-0.12,15.483-7.196,15.503-15.534
		c0.02-8.487-7.452-15.812-15.99-15.678c-8.35,0.133-15.449,7.294-15.482,15.618C170.871,236.711,178.156,243.826,186.875,243.7z" />
        </g>
    </svg>