<?xml version="1.0" encoding="utf-8"?>
<!-- Generator: Adobe Illustrator 16.0.4, SVG Export Plug-In . SVG Version: 6.00 Build 0)  -->
<!DOCTYPE svg PUBLIC "-//W3C//DTD SVG 1.1//EN" "http://www.w3.org/Graphics/SVG/1.1/DTD/svg11.dtd">
<svg version="1.1" id="Black" xmlns="http://www.w3.org/2000/svg" xmlns:xlink="http://www.w3.org/1999/xlink" x="0px" y="0px"
	 width="512px" height="512px" viewBox="0 0 512 512" enable-background="new 0 0 512 512" xml:space="preserve">
<g id="Discord" display="none">
	<g display="inline">
		<path fill="#010101" d="M204.845,214.983c-14.583,0-26.094,12.792-26.094,28.397c0,15.606,11.768,28.398,26.094,28.398
			c14.582,0,26.094-12.792,26.094-28.398C231.196,227.776,219.427,214.983,204.845,214.983z M298.222,214.983
			c-14.582,0-26.094,12.792-26.094,28.397c0,15.606,11.769,28.398,26.094,28.398c14.583,0,26.096-12.792,26.096-28.398
			C324.317,227.776,312.805,214.983,298.222,214.983z"/>
		<path fill="#010101" d="M422.555,0.344H79.746c-28.909,0-52.445,23.536-52.445,52.701v345.879c0,29.165,23.536,52.7,52.445,52.7
			h290.11l-13.56-47.328l32.745,30.445l30.956,28.651L475.001,512V53.044C475.001,23.879,451.464,0.344,422.555,0.344z
			 M323.805,334.456c0,0-9.21-11.002-16.885-20.723c33.515-9.466,46.306-30.444,46.306-30.444
			c-10.489,6.907-20.466,11.769-29.421,15.095c-12.791,5.372-25.07,8.954-37.095,11c-24.559,4.605-47.072,3.326-66.259-0.255
			c-14.582-2.814-27.118-6.908-37.606-11.002c-5.884-2.302-12.28-5.116-18.676-8.698c-0.768-0.512-1.535-0.767-2.303-1.278
			c-0.512-0.257-0.768-0.513-1.023-0.768c-4.605-2.559-7.163-4.35-7.163-4.35s12.28,20.467,44.77,30.188
			c-7.675,9.722-17.14,21.234-17.14,21.234c-56.538-1.791-78.027-38.887-78.027-38.887c0-82.376,36.839-149.147,36.839-149.147
			c36.839-27.629,71.888-26.862,71.888-26.862l2.558,3.07c-46.049,13.302-67.283,33.513-67.283,33.513s5.628-3.07,15.094-7.419
			c27.374-12.024,49.12-15.35,58.073-16.118c1.535-0.256,2.814-0.512,4.349-0.512c15.605-2.047,33.259-2.558,51.677-0.512
			c24.304,2.814,50.399,9.978,77.006,24.56c0,0-20.211-19.188-63.701-32.49l3.58-4.093c0,0,35.049-0.768,71.89,26.862
			c0,0,36.837,66.771,36.837,149.147C402.088,295.569,380.345,332.665,323.805,334.456z"/>
	</g>
</g>
<g id="Facebook" display="none">
	<path id="White_2_" display="inline" d="M483.199,0H28.227C12.635,0,0,12.635,0,28.227v454.973
		c0,15.588,12.635,28.227,28.227,28.227h244.941v-198.05H206.52V236.19h66.648V179.27c0-66.057,40.345-102.026,99.273-102.026
		c28.227,0,52.485,2.101,59.556,3.041v69.033l-40.869,0.019c-32.048,0-38.253,15.229-38.253,37.576v49.278h76.431l-9.951,77.186
		h-66.479v198.05h130.324c15.588,0,28.227-12.639,28.227-28.227V28.227C511.426,12.635,498.787,0,483.199,0z"/>
</g>
<g id="Messenger" display="none">
	<path id="Bubble_Shape" display="inline" fill="#231F20" d="M255.502,0C115.497,0,2,106.13,2,237.049
		c0,74.477,36.731,140.93,94.177,184.388v90.723l86.511-47.986c23.063,6.456,47.505,9.926,72.814,9.926
		c140.005,0,253.502-106.13,253.502-237.05C509.004,106.13,395.507,0,255.502,0z M282.2,317.879l-65.564-68.112L90.372,319.594
		l138.431-146.901l65.565,68.112l126.264-69.828L282.2,317.879z"/>
</g>
<g id="Gamewisp" display="none">
	<path display="inline" fill-rule="evenodd" clip-rule="evenodd" d="M494.606,391.681c9.916,0.087,17.822,8.022,17.847,17.914
		c0.026,10.107-7.969,18.104-18.166,18.171c-9.825,0.064-18.156-8.539-17.896-18.482C476.649,399.438,484.77,391.59,494.606,391.681
		z"/>
	<path display="inline" fill-rule="evenodd" clip-rule="evenodd" d="M462.292,477.352c4.429,0.04,7.959,3.585,7.97,8
		c0.012,4.514-3.559,8.082-8.111,8.111c-4.387,0.031-8.105-3.812-7.99-8.251C454.276,480.816,457.902,477.313,462.292,477.352z"/>
	<path display="inline" fill-rule="evenodd" clip-rule="evenodd" d="M496.047,477.198c4.429,0.041,7.959,3.584,7.97,7.999
		c0.012,4.513-3.559,8.084-8.111,8.113c-4.387,0.029-8.105-3.812-7.99-8.252C488.031,480.663,491.657,477.159,496.047,477.198z"/>
	<path display="inline" fill-rule="evenodd" clip-rule="evenodd" d="M308.369,450.534c14.213,0.129,25.544,11.501,25.58,25.676
		c0.035,14.487-11.422,25.946-26.035,26.043c-14.081,0.093-26.021-12.239-25.647-26.488
		C282.636,461.653,294.271,450.408,308.369,450.534z"/>
	<path display="inline" fill-rule="evenodd" clip-rule="evenodd" d="M447.535,350.059c14.239,0.112,25.454,11.351,25.535,25.591
		c0.086,14.595-11.225,25.745-26.062,25.693c-14.085-0.048-25.9-11.746-25.698-25.44
		C421.525,361.364,433.108,349.948,447.535,350.059z"/>
	<path display="inline" fill-rule="evenodd" clip-rule="evenodd" d="M420.091,468.304c9.788-0.139,17.115,6.879,17.314,16.581
		c0.197,9.622-6.961,17.262-16.461,17.563c-9.146,0.292-17.231-7.449-17.502-16.759
		C403.166,476.163,410.564,468.436,420.091,468.304z"/>
	<path display="inline" fill-rule="evenodd" clip-rule="evenodd" d="M428.31,436.685c0.157-9.478,7.689-16.523,17.528-16.396
		c9.382,0.123,16.631,7.315,16.64,16.513c0.008,9.461-8.437,17.916-17.581,17.596C435.643,454.074,428.155,446.078,428.31,436.685z"
		/>
	<path display="inline" fill-rule="evenodd" clip-rule="evenodd" d="M506.028,346.58c0.189,9.623-7.004,17.07-16.676,17.271
		c-9.756,0.2-17.288-6.864-17.544-16.457c-0.248-9.392,7.929-17.539,17.576-17.513C498.358,329.904,505.85,337.42,506.028,346.58z"
		/>
	<path display="inline" fill-rule="evenodd" clip-rule="evenodd" d="M495.199,445.752c5.269,0.478,8.22,3.245,8.028,8.588
		c-0.173,4.884-2.882,7.836-7.89,7.888c-5.329,0.057-8.382-3.071-8.496-8.178C486.725,448.791,489.977,446.081,495.199,445.752z"/>
	<path display="inline" fill-rule="evenodd" clip-rule="evenodd" d="M17.842,121.495C7.924,121.402,0.021,113.464,0,103.573
		c-0.022-10.109,7.974-18.102,18.171-18.166c9.827-0.062,18.156,8.546,17.891,18.489C35.801,113.743,27.678,121.587,17.842,121.495z
		"/>
	<path display="inline" fill-rule="evenodd" clip-rule="evenodd" d="M50.184,35.833c-4.429-0.042-7.957-3.586-7.966-8.001
		c-0.01-4.513,3.56-8.083,8.113-8.111c4.387-0.028,8.106,3.816,7.987,8.255C58.201,32.371,54.575,35.872,50.184,35.833z"/>
	<path display="inline" fill-rule="evenodd" clip-rule="evenodd" d="M16.429,35.975C12,35.933,8.473,32.389,8.463,27.973
		c-0.01-4.513,3.56-8.082,8.113-8.11c4.387-0.028,8.106,3.815,7.987,8.255C24.447,32.513,20.821,36.015,16.429,35.975z"/>
	<path display="inline" fill-rule="evenodd" clip-rule="evenodd" d="M144.511,43.088c-9.644-0.09-17.328-7.809-17.348-17.425
		c-0.021-9.829,7.753-17.6,17.668-17.663c9.554-0.06,17.652,8.311,17.394,17.978C161.972,35.551,154.075,43.178,144.511,43.088z"/>
	<path display="inline" fill-rule="evenodd" clip-rule="evenodd" d="M256.056,54.311c-0.706-18.327,8.533-31.296,25.859-36.3
		c15.087-4.357,30.525,2.149,38.697,16.638c6.447,11.424,5.521,23.077-0.562,34.228c-2.693,4.94-1.423,6.708,3.355,8.559
		c24.418,9.458,46.378,22.954,65.113,41.339c3.718,3.647,5.183,2.447,7.872-0.984c12.335-15.742,24.639-20.018,40.931-14.568
		c13.688,4.581,21.339,14.344,22.976,28.476c1.566,13.526-3.293,24.414-15.038,31.845c-1.263,0.797-2.549,1.563-3.862,2.271
		c-4.262,2.298-11.107,3.761-12.136,7.052c-1.158,3.706,2.919,9.048,4.716,13.68c7.999,20.613,12.58,41.966,13.016,64.068
		c0.126,6.453,1.87,8.198,8.333,6.762c16.235-3.612,28.133,3.469,36.716,16.755c7.506,11.62,7.006,23.617-0.154,35.223
		c-10.016,16.232-27.475,20.642-46.372,11.099c-6.299-3.181-8.38-2.375-10.846,4.205c-8.835,23.574-22.041,44.601-39.53,62.763
		c-4.069,4.226-4.317,6.285,1.006,9.835c14.264,9.513,19.172,22.165,15.527,37.168c-3.662,15.082-13.879,24.561-28.68,26.613
		c-17.365,2.409-32.304-7.229-38.137-25.36c-1.771-5.502-3.622-7.32-9.359-4.967c-23.196,9.512-47.395,15.16-72.35,17.272
		c-5.921,0.501-7.871,2.858-7.12,8.483c0.392,2.937,0.215,5.966,0.146,8.949c-0.322,13.798-6.539,23.796-19.381,29.225
		c-13.1,5.536-25.46,3.939-36.354-5.215c-10.76-9.042-14.225-20.699-10.411-34.283c1.07-3.813,2.352-7.683,4.278-11.11
		c2.453-4.363,0.915-6.053-3.197-7.575c-25.064-9.276-47.466-22.975-66.805-41.436c-4.546-4.339-5.639-0.509-7.64,2.117
		c-12.807,16.815-27.96,20.742-45.791,12.053c-11.987-5.84-17.885-15.522-18.063-28.614c-0.186-13.646,4.632-24.875,17.147-31.714
		c2.815-1.536,5.887-2.755,8.984-3.588c4.07-1.096,5.099-3.041,3.585-7.034c-2.822-7.445-5.996-14.865-7.75-22.586
		c-3.798-16.708-7.104-33.547-9.95-50.444c-1.032-6.125-2.731-8.623-9.457-7.703c-17.823,2.43-31.886-6.697-37.585-23.614
		c-5.148-15.281,1.232-32.102,15.705-40.492c10.89-6.313,22.266-4.988,32.998,0.031c6.315,2.955,8.419,1.403,10.663-4.624
		c8.792-23.614,22.025-44.626,39.37-62.875c4.14-4.355,3.559-6.031-0.938-9.431c-18.862-14.256-20.244-40.327-3.288-54.938
		c18.542-15.979,46.929-8.211,55.29,15.639c2.31,6.589,4.202,7.705,10.653,4.784c21.276-9.632,43.7-15.13,67.101-16.228
		C256.478,65.236,256.482,65.318,256.056,54.311z M405.648,256.161c0.235-81.682-67.565-150.232-149.16-149.574
		c-87.771,0.708-149.828,70.842-150.115,149.466c-0.3,82.156,66.815,150.08,148.463,150.266
		C338.362,406.509,405.406,339.756,405.648,256.161z"/>
	<path display="inline" fill-rule="evenodd" clip-rule="evenodd" d="M350.057,64.858c0.128-14.233,12.241-25.97,26.529-25.707
		c13.969,0.258,25.394,12.114,25.219,26.177c-0.177,14.109-12.064,25.998-25.711,25.71
		C361.408,90.729,349.927,79.185,350.057,64.858z"/>
	<path display="inline" fill-rule="evenodd" clip-rule="evenodd" d="M204.099,62.702c-14.214-0.132-25.54-11.509-25.57-25.684
		c-0.032-14.487,11.428-25.942,26.042-26.033c14.082-0.088,26.019,12.249,25.64,26.497
		C229.835,51.592,218.196,62.833,204.099,62.702z"/>
	<path display="inline" fill-rule="evenodd" clip-rule="evenodd" d="M37.383,334.641c-14.696,0.162-26.174-11.021-26.294-25.618
		c-0.113-13.784,11.451-25.627,25.428-26.046c14.053-0.418,26.237,11.603,26.236,25.884
		C62.751,323.207,51.655,334.481,37.383,334.641z"/>
	<path display="inline" fill-rule="evenodd" clip-rule="evenodd" d="M451.441,205.744c-0.069-14.4,10.773-25.602,25.097-25.931
		c14.194-0.326,26.067,11.485,26.021,25.884c-0.045,14.297-11.141,25.663-25.264,25.879
		C462.591,231.802,451.513,220.733,451.441,205.744z"/>
	<path display="inline" fill-rule="evenodd" clip-rule="evenodd" d="M307.967,502.435c-14.816-0.112-25.581-11.309-25.3-26.323
		c0.266-14.411,11.298-24.994,25.968-24.914c14.671,0.078,25.6,11.449,25.337,26.361
		C333.722,491.927,322.62,502.544,307.967,502.435z"/>
	<path display="inline" fill-rule="evenodd" clip-rule="evenodd" d="M64.897,163.13c-14.237-0.116-25.448-11.358-25.525-25.6
		c-0.081-14.594,11.234-25.74,26.071-25.684c14.084,0.053,25.896,11.754,25.689,25.45C90.913,151.834,79.324,163.247,64.897,163.13z
		"/>
	<path display="inline" fill-rule="evenodd" clip-rule="evenodd" d="M136.248,474.144c-14.662-0.064-25.239-10.878-25.126-25.685
		c0.111-14.556,11.221-25.577,25.634-25.438c14.319,0.142,26.023,11.644,25.958,25.514
		C162.648,462.945,151.005,474.211,136.248,474.144z"/>
	<path display="inline" fill-rule="evenodd" clip-rule="evenodd" d="M368.14,469.224c9.485,0.154,16.664,7.778,16.48,17.504
		c-0.175,9.389-7.435,16.754-16.52,16.761c-9.352,0.009-17.999-8.606-17.687-17.619C350.735,476.655,358.809,469.072,368.14,469.224
		z"/>
	<path display="inline" fill-rule="evenodd" clip-rule="evenodd" d="M92.383,44.896C82.595,45.03,75.27,38.011,75.075,28.31
		c-0.194-9.623,6.967-17.261,16.465-17.56c9.148-0.288,17.229,7.456,17.497,16.765C109.31,37.041,101.909,44.767,92.383,44.896z"/>
	<path display="inline" fill-rule="evenodd" clip-rule="evenodd" d="M84.152,76.511c-0.16,9.479-7.693,16.522-17.532,16.391
		c-9.382-0.125-16.629-7.321-16.635-16.518C49.98,66.922,58.43,58.47,67.572,58.794C76.826,59.12,84.311,67.119,84.152,76.511z"/>
	<path display="inline" fill-rule="evenodd" clip-rule="evenodd" d="M6.403,166.59c-0.186-9.623,7.01-17.068,16.682-17.265
		c9.757-0.198,17.287,6.87,17.538,16.462c0.247,9.391-7.934,17.536-17.582,17.507C14.066,183.268,6.579,175.75,6.403,166.59z"/>
	<path display="inline" fill-rule="evenodd" clip-rule="evenodd" d="M17.266,67.422c-5.268-0.48-8.217-3.249-8.025-8.591
		c0.176-4.883,2.884-7.835,7.894-7.885c5.327-0.055,8.379,3.073,8.492,8.18C25.742,64.385,22.49,67.094,17.266,67.422z"/>
</g>
<g id="Instagram" display="none">
	<path display="inline" fill="#010101" d="M255.921,46.113c68.334,0,76.428,0.261,103.416,1.492
		c24.953,1.139,38.502,5.307,47.521,8.812c11.116,4.102,21.171,10.644,29.426,19.144c8.5,8.255,15.041,18.31,19.144,29.426
		c3.505,9.018,7.675,22.569,8.812,47.521c1.231,26.987,1.492,35.08,1.492,103.416c0,68.337-0.261,76.428-1.492,103.416
		c-1.139,24.953-5.309,38.502-8.812,47.521c-8.609,22.319-26.25,39.96-48.569,48.569c-9.019,3.505-22.568,7.675-47.521,8.812
		c-26.981,1.231-35.074,1.492-103.416,1.492c-68.341,0-76.432-0.261-103.416-1.492c-24.952-1.139-38.502-5.309-47.521-8.812
		c-11.116-4.102-21.171-10.644-29.426-19.144c-8.5-8.255-15.042-18.31-19.145-29.426c-3.504-9.018-7.674-22.568-8.812-47.521
		c-1.231-26.986-1.493-35.079-1.493-103.416c0-68.336,0.261-76.427,1.493-103.416c1.139-24.952,5.307-38.502,8.812-47.521
		C60.517,93.871,67.06,83.815,75.56,75.56c8.255-8.5,18.31-15.042,29.426-19.145c9.018-3.504,22.569-7.674,47.521-8.812
		c26.987-1.231,35.08-1.493,103.416-1.493 M255.923,0C186.418,0,177.7,0.294,150.408,1.54c-27.241,1.244-45.844,5.57-62.123,11.896
		c-17.076,6.426-32.545,16.5-45.328,29.518C29.936,55.736,19.859,71.206,13.431,88.283c-6.321,16.279-10.647,34.882-11.886,62.123
		C0.294,177.698,0,186.417,0,255.921c0,69.504,0.294,78.223,1.545,105.516c1.244,27.241,5.569,45.844,11.896,62.121
		c6.426,17.076,16.5,32.546,29.519,45.329c12.783,13.019,28.252,23.092,45.328,29.519c16.28,6.326,34.883,10.651,62.123,11.896
		c27.296,1.245,36.011,1.54,105.515,1.54c69.503,0,78.223-0.295,105.516-1.54c27.24-1.244,45.844-5.569,62.122-11.896
		c34.375-13.296,61.551-40.472,74.847-74.848c6.326-16.278,10.652-34.882,11.896-62.121c1.245-27.297,1.54-36.013,1.54-105.516
		c0-69.503-0.295-78.223-1.54-105.516c-1.243-27.24-5.569-45.843-11.896-62.122c-6.427-17.076-16.5-32.545-29.519-45.329
		c-12.783-13.021-28.254-23.097-45.332-29.524C407.28,7.109,388.677,2.783,361.437,1.545C334.144,0.294,325.425,0,255.921,0l0,0
		H255.923z"/>
	<path display="inline" fill="#010101" d="M255.921,124.501c-72.581,0-131.419,58.839-131.419,131.419
		c0,72.581,58.839,131.419,131.419,131.419c72.581,0,131.419-58.838,131.419-131.419l0,0
		C387.34,183.34,328.502,124.501,255.921,124.501z M255.921,341.227c-47.113,0-85.306-38.193-85.306-85.307
		s38.194-85.306,85.308-85.306s85.305,38.194,85.305,85.307C341.228,303.034,303.034,341.227,255.921,341.227z"/>
	<circle display="inline" fill="#010101" cx="392.531" cy="119.31" r="30.71"/>
</g>
<g id="Snapchat" display="none">
	<path display="inline" d="M258.89,495.486c-1.451,0-2.832-0.053-3.884-0.104c-0.833,0.073-1.696,0.104-2.559,0.104
		c-30.445,0-50.803-14.393-68.768-27.104c-12.876-9.095-25.02-17.682-39.246-20.048c-6.987-1.158-13.938-1.748-20.654-1.748
		c-12.099,0-21.661,1.878-28.643,3.243c-4.296,0.838-8,1.558-10.864,1.558c-3,0-6.643-0.664-8.161-5.85
		c-1.204-4.09-2.067-8.053-2.901-11.869c-2.084-9.533-3.595-15.354-7.166-15.906C27.858,411.87,5.295,403.19,0.802,392.68
		c-0.472-1.103-0.733-2.215-0.792-3.313c-0.176-3.135,2.037-5.883,5.124-6.393c30.327-4.994,57.29-21.022,80.149-47.655
		c17.707-20.621,26.402-40.32,27.335-42.496c0.041-0.099,0.088-0.201,0.137-0.294c4.406-8.939,5.283-16.665,2.614-22.954
		c-4.92-11.604-21.216-16.774-31.997-20.195c-2.681-0.848-5.217-1.652-7.238-2.455c-9.558-3.775-25.275-11.751-23.181-22.759
		c1.525-8.028,12.144-13.619,20.724-13.619c2.384,0,4.495,0.417,6.271,1.252c9.698,4.543,18.421,6.846,25.925,6.846
		c9.33,0,13.836-3.553,14.927-4.563c-0.27-4.977-0.598-10.239-0.915-15.216c0-0.006-0.008-0.065-0.008-0.065
		c-2.189-34.84-4.921-78.198,6.168-103.062c33.196-74.425,103.59-80.212,124.369-80.212c0.554,0,9.056-0.085,9.056-0.085
		c0.385-0.006,0.8-0.012,1.233-0.012c20.834,0,91.375,5.793,124.592,80.265c11.09,24.88,8.354,68.274,6.159,103.151l-0.104,1.667
		c-0.303,4.737-0.58,9.218-0.815,13.563c1.027,0.944,5.149,4.202,13.541,4.531c7.151-0.273,15.37-2.565,24.422-6.804
		c2.799-1.312,5.896-1.585,7.999-1.585c3.181,0,6.415,0.618,9.111,1.744l0.144,0.056c7.681,2.726,12.712,8.173,12.819,13.898
		c0.096,5.334-3.869,13.309-23.371,21.011c-1.998,0.792-4.546,1.601-7.237,2.454c-10.79,3.424-27.073,8.593-31.994,20.188
		c-2.673,6.29-1.792,14.013,2.614,22.949c0.05,0.098,0.091,0.196,0.138,0.3c1.357,3.181,34.202,78.072,107.484,90.146
		c3.087,0.514,5.303,3.265,5.126,6.392c-0.064,1.123-0.336,2.248-0.812,3.346c-4.462,10.452-27.022,19.12-65.221,25.02
		c-3.585,0.554-5.095,6.348-7.162,15.833c-0.853,3.917-1.723,7.758-2.91,11.793c-1.112,3.796-3.586,5.65-7.554,5.65h-0.599
		c-2.586,0-6.249-0.47-10.867-1.374c-8.074-1.569-17.128-3.034-28.645-3.034c-6.714,0-13.664,0.59-20.659,1.748
		c-14.211,2.366-26.354,10.939-39.206,20.027C309.697,481.093,289.332,495.486,258.89,495.486"/>
</g>
<g id="Steam" display="none">
	<g display="inline">
		<path fill="#010101" d="M340.05,256.791c35.729,0,64.802-29.116,64.802-64.908c0-35.763-29.072-64.888-64.802-64.888
			c-35.708,0-64.78,29.125-64.78,64.888C275.27,227.675,304.342,256.791,340.05,256.791z M340.159,143.021
			c26.875,0,48.673,21.838,48.673,48.763c0,26.927-21.798,48.746-48.673,48.746c-26.853,0-48.651-21.818-48.651-48.746
			C291.508,164.859,313.307,143.021,340.159,143.021z"/>
		<path fill="#010101" d="M156.156,405.843c27.898,11.624,59.994-1.626,71.627-29.556c5.625-13.492,5.647-28.435,0.088-41.971
			s-16.05-24.128-29.571-29.754c-13.411-5.581-27.765-5.405-40.391-0.615l32.722,13.559c20.563,8.57,30.296,32.215,21.717,52.805
			c-8.553,20.567-32.157,30.324-52.732,21.754l-31.654-13.119C133.568,390.658,143.286,400.48,156.156,405.843z"/>
		<path fill="#010101" d="M256,0C120.329,0,9.317,105.54,0.55,238.992c0.037,0.062,0.073,0.124,0.11,0.186
			c0.001-0.019,0.002-0.033,0.002-0.033l137.557,56.628c3.742-2.461,7.73-4.593,11.987-6.328c9.656-3.979,19.838-5.758,29.986-5.297
			l62.644-90.999c-0.022-0.404-0.022-0.835-0.022-1.266c0-53.705,43.619-97.395,97.236-97.395c53.639,0,97.235,43.689,97.235,97.395
			c0,53.7-43.597,97.429-97.235,97.429c-0.726,0-1.473-0.021-2.197-0.043l-89.633,64.055c0.264,9.889-1.56,19.799-5.472,29.248
			c-15.03,36.147-56.691,53.353-92.824,38.257c-22.084-9.207-37.053-28.347-41.936-50.167l-96.92-39.991
			C43.024,435.635,140.59,512,256,512c141.382,0,256-114.618,256-256C512,114.615,397.383,0,256,0z"/>
	</g>
</g>
<g id="Twitch" display="none">
	
		<g id="g2993" transform="matrix(1.25,0,0,-1.25,-779.56837,2089.8162)" inkscape:groupmode="layer" inkscape:label="Twitch_IntegrationGuidelines" display="inline">
		<g id="g2995" transform="matrix(9.5324427,0,0,9.5324427,1348.9493,1188.2344)">
			<path id="path2997" inkscape:connector-curvature="0" d="M-39.387,27.924l-6.137-6.136h-9.639l-5.259-5.258v5.258h-7.888v25.416
				h28.922V27.924z M-71.817,50.71l-1.753-7.012v-31.55h7.889V7.765h4.381l4.384,4.383h7.01l14.023,14.021V50.71H-71.817
				L-71.817,50.71z"/>
		</g>
		<path id="path2999" inkscape:connector-curvature="0" d="M789.686,1471.112h33.417v100.268h-33.417V1471.112z M881.578,1471.112
			h33.417v100.268h-33.417V1471.112z"/>
	</g>
</g>
<g id="Layer_10">
	<path fill-rule="evenodd" clip-rule="evenodd" d="M476.846,174.731c7.457,4.233,14.873,7.33,20.928,12.139
		c9.237,7.336,13.946,17.664,14.036,29.568c0.185,24.751,0.327,49.508-0.031,74.254c-0.316,21.74-17.835,39.314-39.52,40.124
		c-9.224,0.345-18.473-0.037-27.703,0.169c-3.725,0.081-4.715-1.443-4.711-4.917c0.074-48.396,0.075-96.793,0-145.19
		c-0.005-3.505,1.064-5.197,4.741-4.921c1.419,0.105,2.872-0.249,4.233-0.386c4.026-30.841-7.146-59.442-32.535-77.168
		c-13.229-9.236-28.012-13.763-44.238-13.75c-77.03,0.06-154.058-0.073-231.086,0.066c-43.409,0.079-77.162,33.804-77.78,77.271
		c-0.032,2.216,0.172,4.452-0.052,6.646c-0.506,4.967,0.343,8.357,6.614,7.576c0.913-0.114,2.432,1.995,3.095,3.355
		c0.511,1.05,0.13,2.538,0.13,3.831c0.001,46.734,0.003,93.469-0.001,140.202c0,7.311-0.016,7.322-7.182,7.328
		c-7.943,0.006-15.888,0.118-23.828-0.047c-22.398-0.469-40.336-17.569-40.825-39.974c-0.544-24.924-0.47-49.876-0.001-74.804
		c0.339-18.041,12.202-32.713,29.481-38.169c1.741-0.55,3.496-1.054,5.294-1.595c0.468-8.969,0.504-17.833,1.459-26.598
		c5.595-51.31,49.359-91.404,100.967-91.652c78.689-0.379,157.383-0.366,236.071-0.005c51.529,0.236,94.981,39.741,100.929,90.982
		C476.368,158.006,476.415,167.059,476.846,174.731z M14.284,251.939c-0.008,0-0.017,0-0.024,0c0,11.453-0.026,22.906,0.01,34.357
		c0.02,6.411,2.548,10.024,6.949,10.128c4.55,0.107,7.215-3.695,7.269-10.386c0.014-1.663,0.004-3.325,0.004-4.988
		c0.002-20.688-0.057-41.376,0.032-62.064c0.045-10.429,5.318-16.437,15.217-17.779c5.936-0.805,8.88-3.704,8.28-8.153
		c-0.603-4.475-4.225-6.586-10.188-5.94c-15.411,1.672-27.163,14.511-27.502,30.47C14.088,229.03,14.284,240.486,14.284,251.939z
		 M498.897,252.086c-0.027,0-0.054,0-0.081,0c0-11.985,0.325-23.981-0.082-35.953c-0.533-15.68-14.208-28.972-29.299-29.176
		c-4.495-0.061-7.814,1.81-8.311,6.322c-0.503,4.556,2.391,7.05,6.824,7.811c12.621,2.166,16.882,7.244,16.895,20.171
		c0.019,21.943-0.016,43.887,0.025,65.83c0.012,5.963,2.694,9.388,7.057,9.323c4.335-0.062,6.93-3.495,6.957-9.479
		C498.932,275.32,498.897,263.703,498.897,252.086z"/>
	<path fill-rule="evenodd" clip-rule="evenodd" d="M152.758,392.984c-4.994,0-9.031,0.02-13.066-0.003
		c-31.665-0.177-55.445-23.646-55.556-55.352c-0.179-50.986-0.066-101.972-0.039-152.958c0.004-7.385-0.417-14.845,0.445-22.141
		c3.409-28.833,25.864-48.652,55.089-48.815c27.894-0.155,55.79-0.039,83.684-0.04c49.138,0,98.277-0.018,147.416,0.006
		c35.054,0.019,58.017,22.931,58.033,57.927c0.027,55.235,0.062,110.47-0.022,165.705c-0.043,28.578-18.828,50.559-46.95,55.111
		c-3.438,0.557-6.989,0.539-10.489,0.541c-45.074,0.035-90.148,0.067-135.223-0.05c-3.997-0.011-6.861,1.08-9.712,3.979
		c-16.197,16.455-32.653,32.654-48.916,49.047c-4.661,4.699-9.781,7.552-16.338,4.793c-6.716-2.828-8.471-8.586-8.398-15.416
		C152.861,421.504,152.758,407.686,152.758,392.984z M179.251,405.011c0.487,0.242,0.974,0.484,1.459,0.728
		c9.969-10.067,20.239-19.86,29.796-30.307c5.994-6.553,12.673-8.995,21.475-8.939c47.089,0.301,94.181,0.19,141.271,0.108
		c17.228-0.029,29.084-11.719,29.107-28.733c0.079-56.324,0.076-112.65,0.003-168.973c-0.023-16.959-11.654-28.646-28.538-28.659
		c-78.3-0.06-156.6-0.062-234.899,0.004c-16.64,0.014-28.367,11.702-28.387,28.231c-0.07,56.508-0.067,113.017-0.003,169.527
		c0.019,16.696,11.857,28.409,28.676,28.613c8.125,0.099,16.253-0.077,24.375,0.062c10.758,0.184,15.552,5.042,15.651,15.713
		C179.308,389.927,179.251,397.469,179.251,405.011z"/>
	<path fill-rule="evenodd" clip-rule="evenodd" d="M347.775,253.317c0.001,8.862,0.079,17.724-0.017,26.585
		c-0.177,16.204-11.996,28.48-27.156,28.338c-15.016-0.143-26.671-12.159-26.836-28.099c-0.183-17.722-0.178-35.449-0.002-53.17
		c0.16-16.058,11.693-27.87,26.877-27.935c15.396-0.066,26.953,11.926,27.118,28.249
		C347.846,235.961,347.775,244.639,347.775,253.317z M314.91,212.487c-8.304,0.116-15.517,7.334-15.572,15.585
		c-0.057,8.52,7.33,15.74,15.994,15.637c8.389-0.1,15.529-7.216,15.567-15.51C330.938,219.73,323.446,212.368,314.91,212.487z"/>
	<path fill-rule="evenodd" clip-rule="evenodd" d="M219.147,253.643c0.002,8.862,0.12,17.726-0.023,26.584
		c-0.257,15.855-11.974,27.953-26.951,28.014c-14.935,0.062-26.894-12.068-27.059-27.877c-0.186-17.906-0.199-35.818,0.006-53.724
		c0.184-15.925,11.982-27.699,27.195-27.605c14.963,0.093,26.44,11.744,26.791,27.47
		C219.31,235.548,219.144,244.598,219.147,253.643z M186.875,243.7c8.422-0.12,15.483-7.196,15.503-15.534
		c0.02-8.487-7.452-15.812-15.99-15.678c-8.35,0.133-15.449,7.294-15.482,15.618C170.871,236.711,178.156,243.826,186.875,243.7z"/>
</g>
</svg>
