<?xml version="1.0" encoding="utf-8"?>
    <!-- Generator: Adobe Illustrator 16.0.4, SVG Export Plug-In . SVG Version: 6.00 Build 0)  -->
    <!DOCTYPE svg PUBLIC "-//W3C//DTD SVG 1.1//EN" "http://www.w3.org/Graphics/SVG/1.1/DTD/svg11.dtd">
    <svg version="1.1" id="Black" xmlns="http://www.w3.org/2000/svg" xmlns:xlink="http://www.w3.org/1999/xlink" x="0px" y="0px" width="512px" height="512px" viewBox="0 0 512 512" enable-background="new 0 0 512 512" xml:space="preserve">
        <g id="Coffee">
            <path fill-rule="evenodd" clip-rule="evenodd" d="M1.418,396.6c3.42-8.491,10.191-10.439,18.632-10.317
				c19.074,0.276,38.154,0.087,57.232,0.087c1.659,0,3.318,0,5.123,0c-5.602-9.515-11.256-18.369-16.173-27.617
				c-13.894-26.125-21.575-54.242-25.95-83.366c-3.778-25.151-4.972-50.465-4.955-75.863c0.007-9.802,4.933-14.904,14.713-14.906
				c110.998-0.022,221.996-0.02,332.994-0.003c8.815,0.001,13.978,5.237,14.041,14.145c0.055,7.713,0.011,15.428,0.011,24.156
				c2.407-2.081,4.312-3.782,6.271-5.413c16.378-13.629,34.868-21.24,56.337-17.002c26.171,5.166,40.683,23.065,47.832,47.564
				c2.222,7.612,2.753,15.718,4.057,23.597c0,1.578,0,3.155,0,4.733c-0.979,6.65-1.514,13.403-3.014,19.935
				c-6.58,28.65-20.854,52.223-46.516,67.743c-23.465,14.192-49.918,12.902-70.029-3.926c-6.46-5.405-11.355-12.681-16.255-18.286
				c-8.194,14.192-16.879,29.233-25.698,44.509c1.441,0,3.129,0,4.816,0c20.658,0,41.317,0.004,61.976-0.001
				c6.073-0.002,11.282,1.789,14.012,7.651c2.871,6.169,0.496,11.242-3.893,15.783c-6.027,6.234-11.87,12.65-17.974,18.808
				c-5.987,6.042-11.854,12.277-18.386,17.69c-17.719,14.682-39.073,21.192-61.07,25.961c-9.642,2.089-19.357,3.835-29.039,5.737
				c-55.844,0-111.688,0-167.531,0c-0.695-0.304-1.363-0.767-2.089-0.89c-11.631-1.967-23.355-3.483-34.886-5.915
				c-18.946-3.997-37.793-9.586-52.088-23.039c-15.145-14.253-28.413-30.5-42.501-45.876C1.418,400.386,1.418,398.494,1.418,396.6z
				 M370.451,210.296c-102.799,0-206.006,0-309.548,0c0,2.311-0.155,4.344,0.024,6.347c1.863,20.84,2.819,41.818,5.891,62.482
				c5.728,38.525,20.195,73.518,45.618,103.571c2.41,2.848,4.793,3.871,8.397,3.856c28.698-0.119,57.397-0.066,86.096-0.066
				c34.849,0,69.697,0.037,104.545-0.094c2.099-0.008,4.889-0.727,6.184-2.168c20.402-22.729,34.797-48.811,43.04-78.262
				c5.454-19.481,8.374-39.405,9.619-59.522C371.053,234.545,370.451,222.567,370.451,210.296z M43.24,412.011
				c7.62,9.443,15.591,17.629,25.906,23.02c22.198,11.602,46.421,16.566,70.961,17.096c49.331,1.063,98.699,0.343,148.053,0.275
				c4.858-0.006,9.777-0.204,14.564-0.964c19.111-3.033,38.093-6.624,55.877-14.76c12.213-5.587,21.983-14.114,30.906-24.667
				C273.846,412.011,158.863,412.011,43.24,412.011z M391.859,299.184c-0.058,10.518,2.001,20.426,6.88,29.677
				c9.364,17.75,27.475,24.242,45.573,15.594c6.268-2.994,12.398-7.142,17.25-12.081c18.788-19.128,26.212-42.506,23.352-69.034
				c-0.563-5.221-2.242-10.489-4.311-15.352c-9.575-22.518-31.102-29.899-51.969-17.166
				C403.239,246.321,393.512,270.73,391.859,299.184z" />
            <path fill-rule="evenodd" clip-rule="evenodd" d="M183.146,18c10.769,8.249,18.31,18.88,23.002,31.534
				c5.177,13.961,1.807,26.691-6.341,38.393c-4.219,6.06-9.151,11.623-13.75,17.42c-2.054,2.59-4.097,5.189-6.112,7.81
				c-8.683,11.293-9.247,23.028-1.647,35.037c2.602,4.112,5.6,7.976,8.466,11.917c3.31,4.549,3.151,9.808-0.447,12.742
				c-3.632,2.961-8.612,2.553-12.221-1.567c-9.155-10.449-16.49-21.958-18.049-36.153c-1.308-11.909,3.076-22.312,9.994-31.645
				c5.528-7.458,11.78-14.376,17.33-21.818c11.022-14.782,10.875-24.6-0.185-39.359c-1.697-2.266-3.513-4.454-5.414-6.553
				c-7.153-7.896-7.06-11.128,0.641-17.758C179.991,18,181.569,18,183.146,18z" />
            <path fill-rule="evenodd" clip-rule="evenodd" d="M250.308,63.814c-0.068,11.082-3.856,19.519-9.406,27.121
				c-5.01,6.864-10.693,13.232-15.932,19.934c-13.776,17.625-13.702,29.469,0.148,47.091c1.46,1.857,3.059,3.625,4.345,5.596
				c2.478,3.8,1.903,8.499-1.177,11.212c-3.268,2.878-7.867,3.184-11.106-0.274c-19.724-21.051-27.529-44.885-9.025-69.464
				c5.777-7.674,12.16-14.891,17.933-22.567c9.347-12.427,9.639-21.604,1.053-34.669c-3.012-4.582-6.86-8.609-10.265-12.938
				c-3.369-4.283-3.219-9.188,0.287-12.299c3.303-2.933,8.474-2.96,11.966,0.687c9.679,10.106,18.07,21.069,20.581,35.378
				C250.089,60.783,250.215,62.99,250.308,63.814z" />
            <path fill-rule="evenodd" clip-rule="evenodd" d="M296.114,63.882c0.038,14.174-6.755,24.314-14.483,34.075
				c-5.57,7.034-11.283,13.98-16.438,21.312c-6.361,9.042-5.934,18.735-0.743,28.113c2.805,5.067,6.349,9.746,9.79,14.431
				c2.197,2.991,3.452,6.069,2.123,9.645c-2.145,5.773-9.034,7.594-13.463,2.846c-19.44-20.839-27.271-44.62-8.879-69.206
				c5.85-7.821,12.372-15.141,18.182-22.99c9.042-12.213,9.23-21.596,0.847-34.333c-2.846-4.323-6.333-8.233-9.62-12.255
				c-3.63-4.442-3.911-9.493-0.572-12.729c3.569-3.458,8.937-3.108,12.979,1.254c10.304,11.121,19.266,22.995,20.2,38.996
				C296.071,63.67,296.155,64.296,296.114,63.882z" />
        </g>
    </svg>