<?xml version="1.0" encoding="utf-8"?>
<!-- Generator: Adobe Illustrator 16.0.4, SVG Export Plug-In . SVG Version: 6.00 Build 0)  -->
<!DOCTYPE svg PUBLIC "-//W3C//DTD SVG 1.1//EN" "http://www.w3.org/Graphics/SVG/1.1/DTD/svg11.dtd">
<svg version="1.1" xmlns="http://www.w3.org/2000/svg" xmlns:xlink="http://www.w3.org/1999/xlink" x="0px" y="0px" width="512px"
	 height="512px" viewBox="0 0 512 512" enable-background="new 0 0 512 512" xml:space="preserve">
<g id="Black">
	<g id="Discord_Black">
		<g>
			<path fill="#010101" d="M204.845,214.983c-14.583,0-26.094,12.792-26.094,28.397c0,15.606,11.768,28.398,26.094,28.398
				c14.582,0,26.094-12.792,26.094-28.398C231.196,227.776,219.427,214.983,204.845,214.983z M298.222,214.983
				c-14.582,0-26.094,12.792-26.094,28.397c0,15.606,11.769,28.398,26.094,28.398c14.583,0,26.096-12.792,26.096-28.398
				C324.317,227.776,312.805,214.983,298.222,214.983z"/>
			<path fill="#010101" d="M422.555,0.344H79.746c-28.909,0-52.445,23.536-52.445,52.701v345.879c0,29.165,23.536,52.7,52.445,52.7
				h290.11l-13.56-47.328l32.745,30.445l30.956,28.651L475.001,512V53.044C475.001,23.879,451.464,0.344,422.555,0.344z
				 M323.805,334.456c0,0-9.21-11.002-16.885-20.723c33.515-9.466,46.306-30.444,46.306-30.444
				c-10.489,6.907-20.466,11.769-29.421,15.095c-12.791,5.372-25.07,8.954-37.095,11c-24.559,4.605-47.072,3.326-66.259-0.255
				c-14.582-2.814-27.118-6.908-37.606-11.002c-5.884-2.302-12.28-5.116-18.676-8.698c-0.768-0.512-1.535-0.767-2.303-1.278
				c-0.512-0.257-0.768-0.513-1.023-0.768c-4.605-2.559-7.163-4.35-7.163-4.35s12.28,20.467,44.77,30.188
				c-7.675,9.722-17.14,21.234-17.14,21.234c-56.538-1.791-78.027-38.887-78.027-38.887c0-82.376,36.839-149.147,36.839-149.147
				c36.839-27.629,71.888-26.862,71.888-26.862l2.558,3.07c-46.049,13.302-67.283,33.513-67.283,33.513s5.628-3.07,15.094-7.419
				c27.374-12.024,49.12-15.35,58.073-16.118c1.535-0.256,2.814-0.512,4.349-0.512c15.605-2.047,33.259-2.558,51.677-0.512
				c24.304,2.814,50.399,9.978,77.006,24.56c0,0-20.211-19.188-63.701-32.49l3.58-4.093c0,0,35.049-0.768,71.89,26.862
				c0,0,36.837,66.771,36.837,149.147C402.088,295.569,380.345,332.665,323.805,334.456z"/>
		</g>
	</g>
	<g id="Facebook_black" display="none">
		<path id="White_2_" display="inline" d="M483.199,0H28.227C12.635,0,0,12.635,0,28.227v454.973
			c0,15.588,12.635,28.227,28.227,28.227h244.941v-198.05H206.52V236.19h66.648V179.27c0-66.057,40.345-102.026,99.273-102.026
			c28.227,0,52.485,2.101,59.556,3.041v69.033l-40.869,0.019c-32.048,0-38.253,15.229-38.253,37.576v49.278h76.431l-9.951,77.186
			h-66.479v198.05h130.324c15.588,0,28.227-12.639,28.227-28.227V28.227C511.426,12.635,498.787,0,483.199,0z"/>
	</g>
</g>
<g id="White" display="none">
	<g id="Discord_White" display="inline">
		<g>
			<path fill="#FFFFFF" d="M206.626,214.983c-14.583,0-26.094,12.792-26.094,28.397c0,15.606,11.768,28.398,26.094,28.398
				c14.582,0,26.094-12.792,26.094-28.398C232.977,227.776,221.208,214.983,206.626,214.983z M300.003,214.983
				c-14.582,0-26.094,12.792-26.094,28.397c0,15.606,11.769,28.398,26.094,28.398c14.583,0,26.096-12.792,26.096-28.398
				C326.099,227.776,314.586,214.983,300.003,214.983z"/>
			<path fill="#FFFFFF" d="M424.336,0.344H81.527c-28.909,0-52.445,23.536-52.445,52.701v345.879c0,29.165,23.536,52.7,52.445,52.7
				h290.11l-13.56-47.328l32.745,30.445l30.956,28.651L476.782,512V53.044C476.782,23.879,453.245,0.344,424.336,0.344z
				 M325.586,334.456c0,0-9.21-11.002-16.885-20.723c33.515-9.466,46.306-30.444,46.306-30.444
				c-10.489,6.907-20.466,11.769-29.421,15.095c-12.791,5.372-25.07,8.954-37.095,11c-24.559,4.605-47.072,3.326-66.259-0.255
				c-14.582-2.814-27.118-6.908-37.606-11.002c-5.884-2.302-12.28-5.116-18.676-8.698c-0.768-0.512-1.535-0.767-2.303-1.278
				c-0.512-0.257-0.768-0.513-1.023-0.768c-4.605-2.559-7.163-4.35-7.163-4.35s12.28,20.467,44.77,30.188
				c-7.675,9.722-17.14,21.234-17.14,21.234c-56.538-1.791-78.027-38.887-78.027-38.887c0-82.376,36.839-149.147,36.839-149.147
				c36.839-27.629,71.888-26.862,71.888-26.862l2.558,3.07c-46.049,13.302-67.283,33.513-67.283,33.513s5.628-3.07,15.094-7.419
				c27.374-12.024,49.12-15.35,58.073-16.118c1.535-0.256,2.814-0.512,4.349-0.512c15.605-2.047,33.259-2.558,51.677-0.512
				c24.304,2.814,50.399,9.978,77.006,24.56c0,0-20.211-19.188-63.701-32.49l3.58-4.093c0,0,35.049-0.768,71.89,26.862
				c0,0,36.837,66.771,36.837,149.147C403.869,295.569,382.126,332.665,325.586,334.456z"/>
		</g>
	</g>
	<g id="Facebook_white" display="inline">
		<path id="White_1_" fill="#FFFFFF" d="M483.199-0.426H28.227C12.635-0.426,0,12.209,0,27.801v454.973
			C0,498.361,12.635,511,28.227,511h244.941V312.95H206.52v-77.186h66.648v-56.921c0-66.057,40.345-102.026,99.273-102.026
			c28.227,0,52.485,2.101,59.556,3.041v69.033l-40.869,0.019c-32.048,0-38.253,15.229-38.253,37.576v49.278h76.431l-9.951,77.186
			h-66.479V511h130.324c15.588,0,28.227-12.639,28.227-28.227V27.801C511.426,12.209,498.787-0.426,483.199-0.426z"/>
	</g>
</g>
</svg>
