<?xml version="1.0" encoding="utf-8"?>
    <!-- Generator: Adobe Illustrator 16.0.4, SVG Export Plug-In . SVG Version: 6.00 Build 0)  -->
    <!DOCTYPE svg PUBLIC "-//W3C//DTD SVG 1.1//EN" "http://www.w3.org/Graphics/SVG/1.1/DTD/svg11.dtd">
    <svg version="1.1" xmlns="http://www.w3.org/2000/svg" xmlns:xlink="http://www.w3.org/1999/xlink" x="0px" y="0px" width="512px" height="512px" viewBox="0 0 512 512" enable-background="new 0 0 512 512" xml:space="preserve">
        <g id="Discord">
            <path fill="#010101" d="M204.845,214.983c-14.583,0-26.094,12.792-26.094,28.397c0,15.606,11.768,28.398,26.094,28.398
				c14.582,0,26.094-12.792,26.094-28.398C231.196,227.776,219.427,214.983,204.845,214.983z M298.222,214.983
				c-14.582,0-26.094,12.792-26.094,28.397c0,15.606,11.769,28.398,26.094,28.398c14.583,0,26.096-12.792,26.096-28.398
				C324.317,227.776,312.805,214.983,298.222,214.983z" />
            <path fill="#010101" d="M422.555,0.344H79.746c-28.909,0-52.445,23.536-52.445,52.701v345.879c0,29.165,23.536,52.7,52.445,52.7
				h290.11l-13.56-47.328l32.745,30.445l30.956,28.651L475.001,512V53.044C475.001,23.879,451.464,0.344,422.555,0.344z
				 M323.805,334.456c0,0-9.21-11.002-16.885-20.723c33.515-9.466,46.306-30.444,46.306-30.444
				c-10.489,6.907-20.466,11.769-29.421,15.095c-12.791,5.372-25.07,8.954-37.095,11c-24.559,4.605-47.072,3.326-66.259-0.255
				c-14.582-2.814-27.118-6.908-37.606-11.002c-5.884-2.302-12.28-5.116-18.676-8.698c-0.768-0.512-1.535-0.767-2.303-1.278
				c-0.512-0.257-0.768-0.513-1.023-0.768c-4.605-2.559-7.163-4.35-7.163-4.35s12.28,20.467,44.77,30.188
				c-7.675,9.722-17.14,21.234-17.14,21.234c-56.538-1.791-78.027-38.887-78.027-38.887c0-82.376,36.839-149.147,36.839-149.147
				c36.839-27.629,71.888-26.862,71.888-26.862l2.558,3.07c-46.049,13.302-67.283,33.513-67.283,33.513s5.628-3.07,15.094-7.419
				c27.374-12.024,49.12-15.35,58.073-16.118c1.535-0.256,2.814-0.512,4.349-0.512c15.605-2.047,33.259-2.558,51.677-0.512
				c24.304,2.814,50.399,9.978,77.006,24.56c0,0-20.211-19.188-63.701-32.49l3.58-4.093c0,0,35.049-0.768,71.89,26.862
				c0,0,36.837,66.771,36.837,149.147C402.088,295.569,380.345,332.665,323.805,334.456z" />
        </g>
    </svg>