<?xml version="1.0" encoding="utf-8"?>
    <!-- Generator: Adobe Illustrator 16.0.4, SVG Export Plug-In . SVG Version: 6.00 Build 0)  -->
    <!DOCTYPE svg PUBLIC "-//W3C//DTD SVG 1.1//EN" "http://www.w3.org/Graphics/SVG/1.1/DTD/svg11.dtd">
    <svg version="1.1" xmlns="http://www.w3.org/2000/svg" xmlns:xlink="http://www.w3.org/1999/xlink" x="0px" y="0px" width="512px" height="512px" viewBox="0 0 512 512" enable-background="new 0 0 512 512" xml:space="preserve">
        <g id="Facebook">
            <path id="White_2_" d="M483.199,0H28.227C12.635,0,0,12.635,0,28.227v454.973c0,15.588,12.635,28.227,28.227,28.227h244.941
			v-198.05H206.52V236.19h66.648V179.27c0-66.057,40.345-102.026,99.273-102.026c28.227,0,52.485,2.101,59.556,3.041v69.033
			l-40.869,0.019c-32.048,0-38.253,15.229-38.253,37.576v49.278h76.431l-9.951,77.186h-66.479v198.05h130.324
			c15.588,0,28.227-12.639,28.227-28.227V28.227C511.426,12.635,498.787,0,483.199,0z" />
        </g>
    </svg>