<?xml version="1.0" encoding="utf-8"?>
<!-- Generator: Adobe Illustrator 16.0.4, SVG Export Plug-In . SVG Version: 6.00 Build 0)  -->
<!DOCTYPE svg PUBLIC "-//W3C//DTD SVG 1.1//EN" "http://www.w3.org/Graphics/SVG/1.1/DTD/svg11.dtd">
<svg version="1.1" id="gog" xmlns="http://www.w3.org/2000/svg" xmlns:xlink="http://www.w3.org/1999/xlink" x="0px" y="0px"
	 width="512px" height="512px" viewBox="0 0 512 512" enable-background="new 0 0 512 512" xml:space="preserve">
<path d="M478.013,499.399c-147.719,0-295.437,0-443.155,0c-1.073-0.187-2.145-0.387-3.221-0.556
	c-14.406-2.264-26.809-13.91-29.925-28.166c-0.475-2.172-0.742-4.388-1.105-6.583c0-138.849,0-277.696,0-416.544
	c0.107-0.815,0.232-1.629,0.32-2.446C2.582,29.64,14.29,16.476,29.474,13.077c2.122-0.475,4.291-0.735,6.438-1.094
	c147.016,0,294.031,0,441.047,0c1.982,0.312,3.99,0.51,5.942,0.955c17.632,4.021,29.337,18.796,29.338,37.02
	c0.005,137.179,0.005,274.357-0.02,411.536c0,2.315-0.099,4.679-0.549,6.939c-2.946,14.799-11.632,24.621-25.968,29.329
	C483.227,498.574,480.58,498.866,478.013,499.399z M256.44,488.497c55.546,0,111.092,0,166.639,0
	c17.169,0,34.338-0.008,51.507,0.004c7.526,0.005,13.991-2.569,19.273-7.945c5.296-5.389,7.552-11.96,7.551-19.455
	c-0.016-136.911-0.012-273.823-0.012-410.735c0-0.308,0.003-0.615-0.003-0.922c-0.16-8.592-3.481-15.662-10.267-20.99
	c-5.108-4.012-10.99-5.514-17.45-5.512c-144.815,0.037-289.631,0.028-434.447,0.029c-0.703,0-1.406,0.002-2.107,0.026
	c-7.492,0.255-13.788,3.162-18.795,8.712c-4.744,5.256-6.747,11.502-6.745,18.577c0.034,136.956,0.025,273.912,0.026,410.867
	c0,0.571,0.009,1.142,0.012,1.713c0.018,3.062,0.64,6.011,1.752,8.853c4.055,10.36,13.683,16.777,25.184,16.777
	C111.186,488.499,183.812,488.497,256.44,488.497z"/>
<path fill-rule="evenodd" clip-rule="evenodd" d="M131.269,189.321c0,9.412,0,18.69,0,28.116c-0.554,0-1.025,0-1.496,0
	c-15.5,0-30.999,0.006-46.498-0.002c-11.14-0.005-20.063-7.514-21.94-18.5c-0.228-1.333-0.265-2.711-0.266-4.069
	c-0.015-23.402-0.024-46.805-0.005-70.207c0.009-10.727,6.56-19.398,16.526-21.812c1.899-0.46,3.902-0.685,5.858-0.689
	c23.49-0.046,46.98-0.043,70.47-0.024c11.035,0.009,19.728,6.932,21.975,17.502c0.316,1.488,0.421,3.046,0.422,4.573
	c0.022,40.57,0.031,81.14,0.009,121.709c-0.006,12.609-9.591,22.11-22.217,22.112c-30.471,0.006-60.942,0.002-91.414,0.002
	c-0.479,0-0.958,0-1.538,0c0-9.37,0-18.654,0-28.12c0.58,0,1.131,0,1.682,0c25.422,0,50.844,0,76.267-0.001
	c5.69,0,9.112-3.391,9.113-9.064c0.005-30.516,0.005-61.031,0-91.546c-0.001-5.624-3.41-9.043-9.003-9.046
	c-13.699-0.006-27.398-0.006-41.097,0c-5.391,0.003-8.951,3.503-8.958,8.871c-0.021,13.786-0.022,27.573,0.001,41.36
	c0.009,5.286,3.601,8.828,8.869,8.831c10.538,0.005,21.075,0.002,31.613,0.002C130.16,189.321,130.675,189.321,131.269,189.321z"/>
<path fill-rule="evenodd" clip-rule="evenodd" d="M336.644,268.033c0-9.453,0-18.702,0-28.12c0.614,0,1.169,0,1.724,0
	c25.423,0,50.847,0.001,76.27,0c5.74,0,9.148-3.414,9.148-9.174c0.003-30.429-0.053-60.858,0.056-91.287
	c0.018-5.023-3.526-9.287-9.188-9.236c-13.61,0.123-27.224,0.036-40.835,0.041c-5.636,0.002-9.104,3.474-9.106,9.12
	c-0.007,13.612-0.007,27.224,0,40.835c0.003,5.629,3.495,9.106,9.124,9.108c10.407,0.002,20.813,0.001,31.22,0.001
	c0.526,0,1.052,0,1.69,0c0,9.357,0,18.669,0,28.116c-0.504,0-0.975,0-1.446,0c-15.5,0-31,0.007-46.5-0.002
	c-12.562-0.007-22.203-9.61-22.214-22.174c-0.02-23.667-0.021-47.334,0.001-71.001c0.012-12.446,9.532-22.077,21.997-22.111
	c23.755-0.064,47.51-0.06,71.265-0.002c12.516,0.031,22.032,9.68,22.036,22.208c0.014,40.528,0.013,81.056,0.002,121.583
	c-0.003,12.468-9.655,22.088-22.144,22.092c-30.517,0.007-61.033,0.002-91.55,0.002
	C337.717,268.033,337.242,268.033,336.644,268.033z"/>
<path fill-rule="evenodd" clip-rule="evenodd" d="M396.369,409.183c-9.305,0-18.415,0-27.644,0c0-28.588,0-57.106,0-85.735
	c-0.533-0.027-0.955-0.066-1.377-0.066c-5.84-0.004-11.68-0.012-17.519,0c-5.448,0.01-8.851,3.435-8.852,8.902
	c-0.003,25.027-0.001,50.054-0.001,75.08c0,0.568,0,1.137,0,1.82c-9.198,0-18.341,0-27.674,0c0-0.45,0-0.914,0-1.378
	c0-30.032,0.082-60.064-0.044-90.096c-0.046-10.634,7.245-19.521,16.991-21.497c1.662-0.337,3.394-0.461,5.094-0.462
	c38.374-0.025,76.748-0.02,115.122-0.02c0.391,0,0.781,0,1.26,0c0,37.87,0,75.644,0,113.469c-9.216,0-18.335,0-27.586,0
	c0-28.562,0-57.079,0-85.822c-0.586,0-1.044,0-1.502,0c-5.752,0-11.504-0.004-17.256,0.001c-5.614,0.006-9.009,3.396-9.011,9.031
	c-0.006,24.982-0.003,49.965-0.003,74.948C396.369,407.925,396.369,408.492,396.369,409.183z"/>
<path fill-rule="evenodd" clip-rule="evenodd" d="M314.107,159.814c0,11.896,0.019,23.793-0.005,35.689
	c-0.021,10.736-7.419,19.611-17.976,21.566c-1.329,0.246-2.704,0.351-4.057,0.353c-23.75,0.021-47.499,0.027-71.249,0.009
	c-12.146-0.009-21.9-9.439-21.961-21.587c-0.123-24.056-0.128-48.113,0.004-72.169c0.066-12.042,9.708-21.479,21.748-21.512
	c23.924-0.065,47.849-0.065,71.774,0.002c12.12,0.035,21.683,9.721,21.715,21.826C314.132,135.934,314.107,147.874,314.107,159.814z
	 M256.437,189.321c6.937,0,13.875,0.006,20.812-0.002c5.124-0.006,8.703-3.552,8.709-8.689c0.018-13.919,0.02-27.837-0.001-41.756
	c-0.008-5.07-3.568-8.607-8.644-8.612c-13.875-0.015-27.75-0.014-41.625-0.001c-5.123,0.005-8.735,3.562-8.746,8.681
	c-0.028,13.875-0.026,27.75-0.001,41.624c0.009,5.187,3.632,8.747,8.815,8.753C242.65,189.327,249.543,189.321,256.437,189.321z"/>
<path fill-rule="evenodd" clip-rule="evenodd" d="M234.318,295.713c11.548,0.001,23.098,0.102,34.644-0.029
	c10.404-0.117,18.432,6.516,20.991,14.729c0.707,2.269,1.109,4.729,1.117,7.104c0.081,23.271,0.076,46.543,0.037,69.814
	c-0.021,12.575-9.479,21.921-22.054,21.921c-23.184,0-46.368,0-69.552,0c-12.56,0-21.985-9.375-22.011-21.962
	c-0.029-14.227-0.007-28.453-0.007-42.679c0-9.09-0.032-18.179,0.01-27.268c0.044-9.645,6.031-17.939,15.059-20.6
	c2.398-0.706,5.003-0.965,7.517-0.986C211.485,295.656,222.902,295.713,234.318,295.713z M205.239,352.488
	c0,6.672,0.149,13.349-0.048,20.015c-0.15,5.092,3.617,9.178,9.12,9.123c13.343-0.133,26.688-0.04,40.031-0.044
	c5.642-0.002,9.025-3.359,9.029-8.987c0.011-13.432,0.011-26.863,0-40.295c-0.005-5.585-3.357-8.919-8.939-8.921
	c-13.388-0.004-26.776-0.003-40.164,0c-5.691,0.002-9.02,3.302-9.027,8.962C205.232,339.057,205.239,345.772,205.239,352.488z"/>
<path fill-rule="evenodd" clip-rule="evenodd" d="M155.235,381.622c0,9.3,0,18.412,0,27.604c-0.498,0.022-0.926,0.058-1.354,0.058
	c-23.448,0.003-46.896,0.018-70.344-0.004c-10.22-0.01-18.492-5.784-21.326-15.014c-0.659-2.145-0.984-4.476-0.991-6.723
	c-0.069-23.404-0.068-46.809-0.032-70.213c0.018-11.198,7.957-20.141,18.989-21.501c1.128-0.14,2.28-0.111,3.421-0.111
	c23.404-0.006,46.809-0.005,70.213-0.005c0.432,0,0.864,0,1.397,0c0,9.243,0,18.386,0,27.665c-0.565,0-1.08,0-1.595,0
	c-18.53,0-37.061-0.002-55.591,0.001c-5.839,0.001-9.175,3.313-9.176,9.113c-0.002,13.349-0.003,26.697,0,40.046
	c0.001,5.677,3.418,9.082,9.113,9.083c18.486,0.002,36.973,0.001,55.459,0.001C153.982,381.622,154.545,381.622,155.235,381.622z"/>
</svg>
