<?xml version="1.0" encoding="utf-8"?>
<!-- Generator: Adobe Illustrator 16.0.4, SVG Export Plug-In . SVG Version: 6.00 Build 0)  -->
<!DOCTYPE svg PUBLIC "-//W3C//DTD SVG 1.1//EN" "http://www.w3.org/Graphics/SVG/1.1/DTD/svg11.dtd">
<svg version="1.1" id="Black" xmlns="http://www.w3.org/2000/svg" xmlns:xlink="http://www.w3.org/1999/xlink" x="0px" y="0px"
	 width="512px" height="512px" viewBox="0 0 512 512" enable-background="new 0 0 512 512" xml:space="preserve">
<g id="Gamewisp">
	<path fill-rule="evenodd" clip-rule="evenodd" d="M494.606,391.681c9.916,0.087,17.822,8.022,17.847,17.914
		c0.026,10.107-7.969,18.104-18.166,18.171c-9.825,0.064-18.156-8.539-17.896-18.482C476.649,399.438,484.77,391.59,494.606,391.681
		z"/>
	<path fill-rule="evenodd" clip-rule="evenodd" d="M462.292,477.352c4.429,0.04,7.959,3.585,7.97,8
		c0.012,4.514-3.559,8.082-8.111,8.111c-4.387,0.031-8.105-3.812-7.99-8.251C454.276,480.816,457.902,477.313,462.292,477.352z"/>
	<path fill-rule="evenodd" clip-rule="evenodd" d="M496.047,477.198c4.429,0.041,7.959,3.584,7.97,7.999
		c0.012,4.513-3.559,8.084-8.111,8.113c-4.387,0.029-8.105-3.812-7.99-8.252C488.031,480.663,491.657,477.159,496.047,477.198z"/>
	<path fill-rule="evenodd" clip-rule="evenodd" d="M308.369,450.534c14.213,0.129,25.544,11.501,25.58,25.676
		c0.035,14.487-11.422,25.946-26.035,26.043c-14.081,0.093-26.021-12.239-25.647-26.488
		C282.636,461.653,294.271,450.408,308.369,450.534z"/>
	<path fill-rule="evenodd" clip-rule="evenodd" d="M447.535,350.059c14.239,0.112,25.454,11.351,25.535,25.591
		c0.086,14.595-11.225,25.745-26.062,25.693c-14.085-0.048-25.9-11.746-25.698-25.44
		C421.525,361.364,433.108,349.948,447.535,350.059z"/>
	<path fill-rule="evenodd" clip-rule="evenodd" d="M420.091,468.304c9.788-0.139,17.115,6.879,17.314,16.581
		c0.197,9.622-6.961,17.262-16.461,17.563c-9.146,0.292-17.231-7.449-17.502-16.759
		C403.166,476.163,410.564,468.436,420.091,468.304z"/>
	<path fill-rule="evenodd" clip-rule="evenodd" d="M428.31,436.685c0.157-9.478,7.689-16.523,17.528-16.396
		c9.382,0.123,16.631,7.315,16.64,16.513c0.008,9.461-8.437,17.916-17.581,17.596C435.643,454.074,428.155,446.078,428.31,436.685z"
		/>
	<path fill-rule="evenodd" clip-rule="evenodd" d="M506.028,346.58c0.189,9.623-7.004,17.07-16.676,17.271
		c-9.756,0.2-17.288-6.864-17.544-16.457c-0.248-9.392,7.929-17.539,17.576-17.513C498.358,329.904,505.85,337.42,506.028,346.58z"
		/>
	<path fill-rule="evenodd" clip-rule="evenodd" d="M495.199,445.752c5.269,0.478,8.22,3.245,8.028,8.588
		c-0.173,4.884-2.882,7.836-7.89,7.888c-5.329,0.057-8.382-3.071-8.496-8.178C486.725,448.791,489.977,446.081,495.199,445.752z"/>
	<path fill-rule="evenodd" clip-rule="evenodd" d="M17.842,121.495C7.924,121.402,0.021,113.464,0,103.573
		c-0.022-10.109,7.974-18.102,18.171-18.166c9.827-0.062,18.156,8.546,17.891,18.489C35.801,113.743,27.678,121.587,17.842,121.495z
		"/>
	<path fill-rule="evenodd" clip-rule="evenodd" d="M50.184,35.833c-4.429-0.042-7.957-3.586-7.966-8.001
		c-0.01-4.513,3.56-8.083,8.113-8.111c4.387-0.028,8.106,3.816,7.987,8.255C58.201,32.371,54.575,35.872,50.184,35.833z"/>
	<path fill-rule="evenodd" clip-rule="evenodd" d="M16.429,35.975C12,35.933,8.473,32.389,8.463,27.973
		c-0.01-4.513,3.56-8.082,8.113-8.11c4.387-0.028,8.106,3.815,7.987,8.255C24.447,32.513,20.821,36.015,16.429,35.975z"/>
	<path fill-rule="evenodd" clip-rule="evenodd" d="M144.511,43.088c-9.644-0.09-17.328-7.809-17.348-17.425
		c-0.021-9.829,7.753-17.6,17.668-17.663c9.554-0.06,17.652,8.311,17.394,17.978C161.972,35.551,154.075,43.178,144.511,43.088z"/>
	<path fill-rule="evenodd" clip-rule="evenodd" d="M256.056,54.311c-0.706-18.327,8.533-31.296,25.859-36.3
		c15.087-4.357,30.525,2.149,38.697,16.638c6.447,11.424,5.521,23.077-0.562,34.228c-2.693,4.94-1.423,6.708,3.355,8.559
		c24.418,9.458,46.378,22.954,65.113,41.339c3.718,3.647,5.183,2.447,7.872-0.984c12.335-15.742,24.639-20.018,40.931-14.568
		c13.688,4.581,21.339,14.344,22.976,28.476c1.566,13.526-3.293,24.414-15.038,31.845c-1.263,0.797-2.549,1.563-3.862,2.271
		c-4.262,2.298-11.107,3.761-12.136,7.052c-1.158,3.706,2.919,9.048,4.716,13.68c7.999,20.613,12.58,41.966,13.016,64.068
		c0.126,6.453,1.87,8.198,8.333,6.762c16.235-3.612,28.133,3.469,36.716,16.755c7.506,11.62,7.006,23.617-0.154,35.223
		c-10.016,16.232-27.475,20.642-46.372,11.099c-6.299-3.181-8.38-2.375-10.846,4.205c-8.835,23.574-22.041,44.601-39.53,62.763
		c-4.069,4.226-4.317,6.285,1.006,9.835c14.264,9.513,19.172,22.165,15.527,37.168c-3.662,15.082-13.879,24.561-28.68,26.613
		c-17.365,2.409-32.304-7.229-38.137-25.36c-1.771-5.502-3.622-7.32-9.359-4.967c-23.196,9.512-47.395,15.16-72.35,17.272
		c-5.921,0.501-7.871,2.858-7.12,8.483c0.392,2.937,0.215,5.966,0.146,8.949c-0.322,13.798-6.539,23.796-19.381,29.225
		c-13.1,5.536-25.46,3.939-36.354-5.215c-10.76-9.042-14.225-20.699-10.411-34.283c1.07-3.813,2.352-7.683,4.278-11.11
		c2.453-4.363,0.915-6.053-3.197-7.575c-25.064-9.276-47.466-22.975-66.805-41.436c-4.546-4.339-5.639-0.509-7.64,2.117
		c-12.807,16.815-27.96,20.742-45.791,12.053c-11.987-5.84-17.885-15.522-18.063-28.614c-0.186-13.646,4.632-24.875,17.147-31.714
		c2.815-1.536,5.887-2.755,8.984-3.588c4.07-1.096,5.099-3.041,3.585-7.034c-2.822-7.445-5.996-14.865-7.75-22.586
		c-3.798-16.708-7.104-33.547-9.95-50.444c-1.032-6.125-2.731-8.623-9.457-7.703c-17.823,2.43-31.886-6.697-37.585-23.614
		c-5.148-15.281,1.232-32.102,15.705-40.492c10.89-6.313,22.266-4.988,32.998,0.031c6.315,2.955,8.419,1.403,10.663-4.624
		c8.792-23.614,22.025-44.626,39.37-62.875c4.14-4.355,3.559-6.031-0.938-9.431c-18.862-14.256-20.244-40.327-3.288-54.938
		c18.542-15.979,46.929-8.211,55.29,15.639c2.31,6.589,4.202,7.705,10.653,4.784c21.276-9.632,43.7-15.13,67.101-16.228
		C256.478,65.236,256.482,65.318,256.056,54.311z M405.648,256.161c0.235-81.682-67.565-150.232-149.16-149.574
		c-87.771,0.708-149.828,70.842-150.115,149.466c-0.3,82.156,66.815,150.08,148.463,150.266
		C338.362,406.509,405.406,339.756,405.648,256.161z"/>
	<path fill-rule="evenodd" clip-rule="evenodd" d="M350.057,64.858c0.128-14.233,12.241-25.97,26.529-25.707
		c13.969,0.258,25.394,12.114,25.219,26.177c-0.177,14.109-12.064,25.998-25.711,25.71
		C361.408,90.729,349.927,79.185,350.057,64.858z"/>
	<path fill-rule="evenodd" clip-rule="evenodd" d="M204.099,62.702c-14.214-0.132-25.54-11.509-25.57-25.684
		c-0.032-14.487,11.428-25.942,26.042-26.033c14.082-0.088,26.019,12.249,25.64,26.497
		C229.835,51.592,218.196,62.833,204.099,62.702z"/>
	<path fill-rule="evenodd" clip-rule="evenodd" d="M37.383,334.641c-14.696,0.162-26.174-11.021-26.294-25.618
		c-0.113-13.784,11.451-25.627,25.428-26.046c14.053-0.418,26.237,11.603,26.236,25.884
		C62.751,323.207,51.655,334.481,37.383,334.641z"/>
	<path fill-rule="evenodd" clip-rule="evenodd" d="M451.441,205.744c-0.069-14.4,10.773-25.602,25.097-25.931
		c14.194-0.326,26.067,11.485,26.021,25.884c-0.045,14.297-11.141,25.663-25.264,25.879
		C462.591,231.802,451.513,220.733,451.441,205.744z"/>
	<path fill-rule="evenodd" clip-rule="evenodd" d="M307.967,502.435c-14.816-0.112-25.581-11.309-25.3-26.323
		c0.266-14.411,11.298-24.994,25.968-24.914c14.671,0.078,25.6,11.449,25.337,26.361
		C333.722,491.927,322.62,502.544,307.967,502.435z"/>
	<path fill-rule="evenodd" clip-rule="evenodd" d="M64.897,163.13c-14.237-0.116-25.448-11.358-25.525-25.6
		c-0.081-14.594,11.234-25.74,26.071-25.684c14.084,0.053,25.896,11.754,25.689,25.45C90.913,151.834,79.324,163.247,64.897,163.13z
		"/>
	<path fill-rule="evenodd" clip-rule="evenodd" d="M136.248,474.144c-14.662-0.064-25.239-10.878-25.126-25.685
		c0.111-14.556,11.221-25.577,25.634-25.438c14.319,0.142,26.023,11.644,25.958,25.514
		C162.648,462.945,151.005,474.211,136.248,474.144z"/>
	<path fill-rule="evenodd" clip-rule="evenodd" d="M368.14,469.224c9.485,0.154,16.664,7.778,16.48,17.504
		c-0.175,9.389-7.435,16.754-16.52,16.761c-9.352,0.009-17.999-8.606-17.687-17.619C350.735,476.655,358.809,469.072,368.14,469.224
		z"/>
	<path fill-rule="evenodd" clip-rule="evenodd" d="M92.383,44.896C82.595,45.03,75.27,38.011,75.075,28.31
		c-0.194-9.623,6.967-17.261,16.465-17.56c9.148-0.288,17.229,7.456,17.497,16.765C109.31,37.041,101.909,44.767,92.383,44.896z"/>
	<path fill-rule="evenodd" clip-rule="evenodd" d="M84.152,76.511c-0.16,9.479-7.693,16.522-17.532,16.391
		c-9.382-0.125-16.629-7.321-16.635-16.518C49.98,66.922,58.43,58.47,67.572,58.794C76.826,59.12,84.311,67.119,84.152,76.511z"/>
	<path fill-rule="evenodd" clip-rule="evenodd" d="M6.403,166.59c-0.186-9.623,7.01-17.068,16.682-17.265
		c9.757-0.198,17.287,6.87,17.538,16.462c0.247,9.391-7.934,17.536-17.582,17.507C14.066,183.268,6.579,175.75,6.403,166.59z"/>
	<path fill-rule="evenodd" clip-rule="evenodd" d="M17.266,67.422c-5.268-0.48-8.217-3.249-8.025-8.591
		c0.176-4.883,2.884-7.835,7.894-7.885c5.327-0.055,8.379,3.073,8.492,8.18C25.742,64.385,22.49,67.094,17.266,67.422z"/>
</g>
</svg>
