<?xml version="1.0" encoding="utf-8"?>
<!-- Generator: Adobe Illustrator 16.0.4, SVG Export Plug-In . SVG Version: 6.00 Build 0)  -->
<!DOCTYPE svg PUBLIC "-//W3C//DTD SVG 1.1//EN" "http://www.w3.org/Graphics/SVG/1.1/DTD/svg11.dtd">
<svg version="1.1" id="humble_bundle" xmlns="http://www.w3.org/2000/svg" xmlns:xlink="http://www.w3.org/1999/xlink" x="0px"
	 y="0px" width="512px" height="512px" viewBox="0 0 512 512" enable-background="new 0 0 512 512" xml:space="preserve">
<path fill-rule="evenodd" clip-rule="evenodd" d="M512,320.273c-10.253,19.377-15.241,20.837-35.17,10.266
	c-64.858-34.396-129.725-68.788-194.564-103.213c-4.051-2.148-7.953-4.568-13.1-7.541c7.889-10.157,15.111-19.45,22.808-29.358
	c4.275,2.048,8.09,3.71,11.757,5.653c63.35,33.59,126.802,67.002,189.864,101.124c7.247,3.924,12.323,11.858,18.405,17.93
	C512,316.846,512,318.563,512,320.273z"/>
<path fill-rule="evenodd" clip-rule="evenodd" d="M26.352,45.329c3.714,2.609,7.208,5.624,11.174,7.763
	c53.814,29.017,107.697,57.907,161.552,86.85c3.719,1.999,7.346,4.164,12.61,7.159c-14.524,5.8-27.357,11.371-40.551,15.888
	c-3.362,1.151-8.392-0.054-11.771-1.847C110.639,135.302,62,109.292,13.55,82.939c-4.984-2.709-8.629-7.883-12.895-11.914
	c0-8.565,0-17.13,0-25.696C9.221,45.329,17.786,45.329,26.352,45.329z"/>
<path fill-rule="evenodd" clip-rule="evenodd" d="M291.568,56.231c12.723,4.489,19.117,13.992,20.231,27.139
	c1.973,23.284-2.469,45.63-15.016,65.137c-12.2,18.975-26.585,36.574-40.38,54.489c-15.638,20.307-33.071,39.393-47.041,60.761
	c-8.372,12.808-13.623,28.569-16.65,43.729c-3.731,18.679,5.845,32.024,25.939,40.962c-2.315-4.526-4.101-7.61-5.52-10.854
	c-7.432-17.007-9.395-34.69,1.649-50.228c11.292-15.889,24.801-30.278,38.172-44.544c2.349-2.505,9.749-3.05,13.203-1.305
	c25.548,12.924,51.155,25.874,75.679,40.596c7.693,4.62,14.424,13.822,17.623,22.407c10.698,28.721,12.04,58.58,3.895,88.233
	c-10.483,38.18-39.045,57.049-75.19,65.609c-42.262,10.008-85.036,9.48-127.178-0.58c-53.912-12.87-84.487-51.966-87.526-112.172
	c-1.024-20.307-0.242-41.289,3.773-61.141c8.332-41.19,34.729-70.029,70.833-89.639c19.825-10.768,41.281-18.49,61.589-28.427
	c17.983-8.8,36.081-17.718,52.81-28.609c10.126-6.595,19.035-16.106,26.202-25.972C301.132,94.657,304.465,75.957,291.568,56.231z"
	/>
<path fill-rule="evenodd" clip-rule="evenodd" d="M241.376,54.322c-18.811,27.669-7.964,48.842,9.477,70.196
	c-7.517,4.455-14.599,8.651-21.704,12.861C210.184,104.526,214.646,66.574,241.376,54.322z"/>
</svg>
