<?xml version="1.0" encoding="utf-8"?>
<!-- Generator: Adobe Illustrator 16.0.4, SVG Export Plug-In . SVG Version: 6.00 Build 0)  -->
<!DOCTYPE svg PUBLIC "-//W3C//DTD SVG 1.1//EN" "http://www.w3.org/Graphics/SVG/1.1/DTD/svg11.dtd">
<svg version="1.1" id="Black" xmlns="http://www.w3.org/2000/svg" xmlns:xlink="http://www.w3.org/1999/xlink" x="0px" y="0px"
	 width="512px" height="512px" viewBox="0 0 512 512" enable-background="new 0 0 512 512" xml:space="preserve">
<g id="instagram">
	<path fill="#010101" d="M255.921,46.113c68.334,0,76.428,0.261,103.416,1.492c24.953,1.139,38.502,5.307,47.521,8.812
		c11.116,4.102,21.171,10.644,29.426,19.144c8.5,8.255,15.041,18.31,19.144,29.426c3.505,9.018,7.675,22.569,8.812,47.521
		c1.231,26.987,1.492,35.08,1.492,103.416c0,68.337-0.261,76.428-1.492,103.416c-1.139,24.953-5.309,38.502-8.812,47.521
		c-8.609,22.319-26.25,39.96-48.569,48.569c-9.019,3.505-22.568,7.675-47.521,8.812c-26.981,1.231-35.074,1.492-103.416,1.492
		c-68.341,0-76.432-0.261-103.416-1.492c-24.952-1.139-38.502-5.309-47.521-8.812c-11.116-4.102-21.171-10.644-29.426-19.144
		c-8.5-8.255-15.042-18.31-19.145-29.426c-3.504-9.018-7.674-22.568-8.812-47.521c-1.231-26.986-1.493-35.079-1.493-103.416
		c0-68.336,0.261-76.427,1.493-103.416c1.139-24.952,5.307-38.502,8.812-47.521C60.517,93.871,67.06,83.815,75.56,75.56
		c8.255-8.5,18.31-15.042,29.426-19.145c9.018-3.504,22.569-7.674,47.521-8.812c26.987-1.231,35.08-1.493,103.416-1.493 M255.923,0
		C186.418,0,177.7,0.294,150.408,1.54c-27.241,1.244-45.844,5.57-62.123,11.896c-17.076,6.426-32.545,16.5-45.328,29.518
		C29.936,55.736,19.859,71.206,13.431,88.283c-6.321,16.279-10.647,34.882-11.886,62.123C0.294,177.698,0,186.417,0,255.921
		c0,69.504,0.294,78.223,1.545,105.516c1.244,27.241,5.569,45.844,11.896,62.121c6.426,17.076,16.5,32.546,29.519,45.329
		c12.783,13.019,28.252,23.092,45.328,29.519c16.28,6.326,34.883,10.651,62.123,11.896c27.296,1.245,36.011,1.54,105.515,1.54
		c69.503,0,78.223-0.295,105.516-1.54c27.24-1.244,45.844-5.569,62.122-11.896c34.375-13.296,61.551-40.472,74.847-74.848
		c6.326-16.278,10.652-34.882,11.896-62.121c1.245-27.297,1.54-36.013,1.54-105.516c0-69.503-0.295-78.223-1.54-105.516
		c-1.243-27.24-5.569-45.843-11.896-62.122c-6.427-17.076-16.5-32.545-29.519-45.329c-12.783-13.021-28.254-23.097-45.332-29.524
		C407.28,7.109,388.677,2.783,361.437,1.545C334.144,0.294,325.425,0,255.921,0l0,0H255.923z"/>
	<path fill="#010101" d="M255.921,124.501c-72.581,0-131.419,58.839-131.419,131.419c0,72.581,58.839,131.419,131.419,131.419
		c72.581,0,131.419-58.838,131.419-131.419l0,0C387.34,183.34,328.502,124.501,255.921,124.501z M255.921,341.227
		c-47.113,0-85.306-38.193-85.306-85.307s38.194-85.306,85.308-85.306s85.305,38.194,85.305,85.307
		C341.228,303.034,303.034,341.227,255.921,341.227z"/>
	<circle fill="#010101" cx="392.531" cy="119.31" r="30.71"/>
</g>
</svg>
