<?xml version="1.0" encoding="utf-8"?>
<!-- Generator: Adobe Illustrator 16.0.4, SVG Export Plug-In . SVG Version: 6.00 Build 0)  -->
<!DOCTYPE svg PUBLIC "-//W3C//DTD SVG 1.1//EN" "http://www.w3.org/Graphics/SVG/1.1/DTD/svg11.dtd">
<svg version="1.1" xmlns="http://www.w3.org/2000/svg" xmlns:xlink="http://www.w3.org/1999/xlink" x="0px" y="0px" width="512px"
	 height="512px" viewBox="0 0 512 512" enable-background="new 0 0 512 512" xml:space="preserve">
<g id="Black" display="none">
	<g id="Discord_Black">
		<g display="inline">
			<path fill="#010101" d="M204.845,214.983c-14.583,0-26.094,12.792-26.094,28.397c0,15.606,11.768,28.397,26.094,28.397
				c14.582,0,26.094-12.791,26.094-28.397C231.196,227.776,219.427,214.983,204.845,214.983z M298.223,214.983
				c-14.582,0-26.095,12.792-26.095,28.397c0,15.606,11.769,28.397,26.095,28.397c14.582,0,26.096-12.791,26.096-28.397
				C324.317,227.776,312.805,214.983,298.223,214.983z"/>
			<path fill="#010101" d="M422.555,0.344H79.746c-28.909,0-52.445,23.536-52.445,52.701v345.879c0,29.165,23.536,52.7,52.445,52.7
				h290.11l-13.561-47.328l32.745,30.445l30.956,28.65L475.001,512V53.044C475.001,23.879,451.464,0.344,422.555,0.344z
				 M323.805,334.456c0,0-9.21-11.002-16.885-20.724c33.515-9.465,46.306-30.443,46.306-30.443
				c-10.488,6.906-20.466,11.77-29.421,15.095c-12.791,5.372-25.07,8.954-37.095,11c-24.56,4.605-47.072,3.326-66.259-0.255
				c-14.582-2.814-27.118-6.908-37.606-11.002c-5.884-2.302-12.28-5.116-18.676-8.697c-0.768-0.513-1.535-0.768-2.303-1.279
				c-0.512-0.256-0.768-0.512-1.023-0.768c-4.605-2.559-7.163-4.35-7.163-4.35s12.28,20.467,44.77,30.188
				c-7.675,9.723-17.14,21.234-17.14,21.234c-56.538-1.791-78.027-38.887-78.027-38.887c0-82.376,36.839-149.147,36.839-149.147
				c36.839-27.629,71.888-26.862,71.888-26.862l2.558,3.07c-46.049,13.302-67.283,33.513-67.283,33.513s5.628-3.07,15.094-7.419
				c27.374-12.024,49.12-15.35,58.073-16.118c1.535-0.256,2.814-0.512,4.349-0.512c15.605-2.047,33.26-2.558,51.678-0.512
				c24.304,2.814,50.398,9.978,77.006,24.56c0,0-20.211-19.188-63.701-32.49l3.58-4.093c0,0,35.049-0.768,71.89,26.862
				c0,0,36.837,66.771,36.837,149.146C402.088,295.568,380.345,332.665,323.805,334.456z"/>
		</g>
	</g>
	<g id="Facebook_black">
		<path id="White_2_" display="inline" d="M483.199,0H28.227C12.635,0,0,12.635,0,28.227V483.2
			c0,15.588,12.635,28.227,28.227,28.227h244.941v-198.05H206.52V236.19h66.648v-56.92c0-66.057,40.345-102.026,99.273-102.026
			c28.227,0,52.484,2.101,59.556,3.041v69.033l-40.869,0.019c-32.048,0-38.253,15.229-38.253,37.576v49.278h76.431l-9.95,77.186
			h-66.479v198.05H483.2c15.588,0,28.227-12.639,28.227-28.227V28.227C511.426,12.635,498.787,0,483.199,0z"/>
	</g>
	<g id="Messenger" display="inline">
		<path id="Bubble_Shape" fill="#231F20" d="M255.502,0C115.497,0,2,106.13,2,237.049c0,74.477,36.731,140.93,94.177,184.389v90.723
			l86.511-47.986c23.063,6.456,47.505,9.926,72.814,9.926c140.005,0,253.502-106.129,253.502-237.05
			C509.004,106.13,395.507,0,255.502,0z M282.2,317.879l-65.564-68.112L90.372,319.594l138.431-146.901l65.565,68.112
			l126.264-69.828L282.2,317.879z"/>
	</g>
</g>
<g id="Layer_2">
	<path d="M488.728,256c-12.853,0-23.273,10.421-23.273,23.272v162.909c0,12.857-10.415,23.272-23.272,23.272H69.818
		c-12.857,0-23.273-10.415-23.273-23.272V69.818c0-12.857,10.416-23.272,23.273-23.272h162.909c12.853,0,23.273-10.42,23.273-23.272
		S245.58,0,232.727,0H69.818C31.261,0,0,31.261,0,69.818v372.364C0,480.738,31.261,512,69.818,512h372.364
		C480.738,512,512,480.738,512,442.182V279.272C512,266.421,501.579,256,488.728,256z"/>
	<path d="M511.978,23.066c-0.017-1.451-0.149-2.902-0.438-4.325c-0.13-0.651-0.381-1.257-0.563-1.893
		c-0.233-0.828-0.432-1.661-0.764-2.467c-0.295-0.708-0.699-1.346-1.057-2.015c-0.365-0.671-0.661-1.363-1.095-2.005
		c-0.698-1.042-1.523-1.992-2.372-2.909c-0.188-0.201-0.324-0.435-0.518-0.628c-0.183-0.18-0.388-0.296-0.58-0.472
		c-0.935-0.873-1.901-1.708-2.972-2.424c-0.627-0.418-1.313-0.717-1.975-1.07c-0.677-0.364-1.326-0.777-2.043-1.073
		c-0.809-0.339-1.645-0.533-2.481-0.771c-0.627-0.179-1.229-0.424-1.873-0.552C491.751,0.156,490.214,0,488.684,0H348.82
		c-12.873,0-23.311,10.438-23.311,23.312c0,12.873,10.438,23.311,23.311,23.311h83.588L241.433,237.601
		c-9.104,9.103-9.104,23.866,0,32.961c9.101,9.104,23.863,9.104,32.959,0L465.377,79.587v83.592
		c0,12.874,10.438,23.312,23.312,23.312c12.873,0,23.311-10.438,23.311-23.312V23.312C512,23.229,511.978,23.155,511.978,23.066z"/>
</g>
</svg>
