<?xml version="1.0" encoding="utf-8"?>
    <!-- Generator: Adobe Illustrator 16.0.4, SVG Export Plug-In . SVG Version: 6.00 Build 0)  -->
    <!DOCTYPE svg PUBLIC "-//W3C//DTD SVG 1.1//EN" "http://www.w3.org/Graphics/SVG/1.1/DTD/svg11.dtd">
    <svg version="1.1" xmlns="http://www.w3.org/2000/svg" xmlns:xlink="http://www.w3.org/1999/xlink" x="0px" y="0px" width="512px" height="512px" viewBox="0 0 512 512" enable-background="new 0 0 512 512" xml:space="preserve">
        <g id="open">
            <path d="M488.728,256c-12.853,0-23.273,10.421-23.273,23.272v162.909c0,12.857-10.415,23.272-23.272,23.272H69.818
		c-12.857,0-23.273-10.415-23.273-23.272V69.818c0-12.857,10.416-23.272,23.273-23.272h162.909c12.853,0,23.273-10.42,23.273-23.272
		S245.58,0,232.727,0H69.818C31.261,0,0,31.261,0,69.818v372.364C0,480.738,31.261,512,69.818,512h372.364
		C480.738,512,512,480.738,512,442.182V279.272C512,266.421,501.579,256,488.728,256z" />
            <path d="M511.978,23.066c-0.017-1.451-0.149-2.902-0.438-4.325c-0.13-0.651-0.381-1.257-0.563-1.893
		c-0.233-0.828-0.432-1.661-0.764-2.467c-0.295-0.708-0.699-1.346-1.057-2.015c-0.365-0.671-0.661-1.363-1.095-2.005
		c-0.698-1.042-1.523-1.992-2.372-2.909c-0.188-0.201-0.324-0.435-0.518-0.628c-0.183-0.18-0.388-0.296-0.58-0.472
		c-0.935-0.873-1.901-1.708-2.972-2.424c-0.627-0.418-1.313-0.717-1.975-1.07c-0.677-0.364-1.326-0.777-2.043-1.073
		c-0.809-0.339-1.645-0.533-2.481-0.771c-0.627-0.179-1.229-0.424-1.873-0.552C491.751,0.156,490.214,0,488.684,0H348.82
		c-12.873,0-23.311,10.438-23.311,23.312c0,12.873,10.438,23.311,23.311,23.311h83.588L241.433,237.601
		c-9.104,9.103-9.104,23.866,0,32.961c9.101,9.104,23.863,9.104,32.959,0L465.377,79.587v83.592
		c0,12.874,10.438,23.312,23.312,23.312c12.873,0,23.311-10.438,23.311-23.312V23.312C512,23.229,511.978,23.155,511.978,23.066z" />
        </g>
    </svg>