<?xml version="1.0" encoding="utf-8"?>
    <!-- Generator: Adobe Illustrator 16.0.4, SVG Export Plug-In . SVG Version: 6.00 Build 0)  -->
    <!DOCTYPE svg PUBLIC "-//W3C//DTD SVG 1.1//EN" "http://www.w3.org/Graphics/SVG/1.1/DTD/svg11.dtd">
    <svg version="1.1" id="Black" xmlns="http://www.w3.org/2000/svg" xmlns:xlink="http://www.w3.org/1999/xlink" x="0px" y="0px" width="512px" height="512px" viewBox="0 0 512 512" enable-background="new 0 0 512 512" xml:space="preserve">
        <g id="Snapchat">
            <path d="M258.89,495.486c-1.451,0-2.832-0.053-3.884-0.104c-0.833,0.073-1.696,0.104-2.559,0.104
		c-30.445,0-50.803-14.393-68.768-27.104c-12.876-9.095-25.02-17.682-39.246-20.048c-6.987-1.158-13.938-1.748-20.654-1.748
		c-12.099,0-21.661,1.878-28.643,3.243c-4.296,0.838-8,1.558-10.864,1.558c-3,0-6.643-0.664-8.161-5.85
		c-1.204-4.09-2.067-8.053-2.901-11.869c-2.084-9.533-3.595-15.354-7.166-15.906C27.858,411.87,5.295,403.19,0.802,392.68
		c-0.472-1.103-0.733-2.215-0.792-3.313c-0.176-3.135,2.037-5.883,5.124-6.393c30.327-4.994,57.29-21.022,80.149-47.655
		c17.707-20.621,26.402-40.32,27.335-42.496c0.041-0.099,0.088-0.201,0.137-0.294c4.406-8.939,5.283-16.665,2.614-22.954
		c-4.92-11.604-21.216-16.774-31.997-20.195c-2.681-0.848-5.217-1.652-7.238-2.455c-9.558-3.775-25.275-11.751-23.181-22.759
		c1.525-8.028,12.144-13.619,20.724-13.619c2.384,0,4.495,0.417,6.271,1.252c9.698,4.543,18.421,6.846,25.925,6.846
		c9.33,0,13.836-3.553,14.927-4.563c-0.27-4.977-0.598-10.239-0.915-15.216c0-0.006-0.008-0.065-0.008-0.065
		c-2.189-34.84-4.921-78.198,6.168-103.062c33.196-74.425,103.59-80.212,124.369-80.212c0.554,0,9.056-0.085,9.056-0.085
		c0.385-0.006,0.8-0.012,1.233-0.012c20.834,0,91.375,5.793,124.592,80.265c11.09,24.88,8.354,68.274,6.159,103.151l-0.104,1.667
		c-0.303,4.737-0.58,9.218-0.815,13.563c1.027,0.944,5.149,4.202,13.541,4.531c7.151-0.273,15.37-2.565,24.422-6.804
		c2.799-1.312,5.896-1.585,7.999-1.585c3.181,0,6.415,0.618,9.111,1.744l0.144,0.056c7.681,2.726,12.712,8.173,12.819,13.898
		c0.096,5.334-3.869,13.309-23.371,21.011c-1.998,0.792-4.546,1.601-7.237,2.454c-10.79,3.424-27.073,8.593-31.994,20.188
		c-2.673,6.29-1.792,14.013,2.614,22.949c0.05,0.098,0.091,0.196,0.138,0.3c1.357,3.181,34.202,78.072,107.484,90.146
		c3.087,0.514,5.303,3.265,5.126,6.392c-0.064,1.123-0.336,2.248-0.812,3.346c-4.462,10.452-27.022,19.12-65.221,25.02
		c-3.585,0.554-5.095,6.348-7.162,15.833c-0.853,3.917-1.723,7.758-2.91,11.793c-1.112,3.796-3.586,5.65-7.554,5.65h-0.599
		c-2.586,0-6.249-0.47-10.867-1.374c-8.074-1.569-17.128-3.034-28.645-3.034c-6.714,0-13.664,0.59-20.659,1.748
		c-14.211,2.366-26.354,10.939-39.206,20.027C309.697,481.093,289.332,495.486,258.89,495.486" />
        </g>
    </svg>