<?xml version="1.0" encoding="utf-8"?>
    <!-- Generator: Adobe Illustrator 16.0.4, SVG Export Plug-In . SVG Version: 6.00 Build 0)  -->
    <!DOCTYPE svg PUBLIC "-//W3C//DTD SVG 1.1//EN" "http://www.w3.org/Graphics/SVG/1.1/DTD/svg11.dtd">
    <svg version="1.1" id="Black" xmlns="http://www.w3.org/2000/svg" xmlns:xlink="http://www.w3.org/1999/xlink" x="0px" y="0px" width="512px" height="512px" viewBox="0 0 512 512" enable-background="new 0 0 512 512" xml:space="preserve">
        <g id="Steam">
            <g>
                <path fill="#010101" d="M340.05,256.791c35.729,0,64.802-29.116,64.802-64.908c0-35.763-29.072-64.888-64.802-64.888
			c-35.708,0-64.78,29.125-64.78,64.888C275.27,227.675,304.342,256.791,340.05,256.791z M340.159,143.021
			c26.875,0,48.673,21.838,48.673,48.763c0,26.927-21.798,48.746-48.673,48.746c-26.853,0-48.651-21.818-48.651-48.746
			C291.508,164.859,313.307,143.021,340.159,143.021z" />
                <path fill="#010101" d="M156.156,405.843c27.898,11.624,59.994-1.626,71.627-29.556c5.625-13.492,5.647-28.435,0.088-41.971
			s-16.05-24.128-29.571-29.754c-13.411-5.581-27.765-5.405-40.391-0.615l32.722,13.559c20.563,8.57,30.296,32.215,21.717,52.805
			c-8.553,20.567-32.157,30.324-52.732,21.754l-31.654-13.119C133.568,390.658,143.286,400.48,156.156,405.843z" />
                <path fill="#010101" d="M256,0C120.329,0,9.317,105.54,0.55,238.992c0.037,0.062,0.073,0.124,0.11,0.186
			c0.001-0.019,0.002-0.033,0.002-0.033l137.557,56.628c3.742-2.461,7.73-4.593,11.987-6.328c9.656-3.979,19.838-5.758,29.986-5.297
			l62.644-90.999c-0.022-0.404-0.022-0.835-0.022-1.266c0-53.705,43.619-97.395,97.236-97.395c53.639,0,97.235,43.689,97.235,97.395
			c0,53.7-43.597,97.429-97.235,97.429c-0.726,0-1.473-0.021-2.197-0.043l-89.633,64.055c0.264,9.889-1.56,19.799-5.472,29.248
			c-15.03,36.147-56.691,53.353-92.824,38.257c-22.084-9.207-37.053-28.347-41.936-50.167l-96.92-39.991
			C43.024,435.635,140.59,512,256,512c141.382,0,256-114.618,256-256C512,114.615,397.383,0,256,0z" />
            </g>
        </g>
    </svg>