<?xml version="1.0" encoding="utf-8"?>
    <!-- Generator: Adobe Illustrator 16.0.4, SVG Export Plug-In . SVG Version: 6.00 Build 0)  -->
    <!DOCTYPE svg PUBLIC "-//W3C//DTD SVG 1.1//EN" "http://www.w3.org/Graphics/SVG/1.1/DTD/svg11.dtd">
    <svg version="1.1" id="Black" xmlns="http://www.w3.org/2000/svg" xmlns:xlink="http://www.w3.org/1999/xlink" x="0px" y="0px" width="512px" height="512px" viewBox="0 0 512 512" enable-background="new 0 0 512 512" xml:space="preserve">
        <g id="Twitter">
            <path fill="#010101" d="M160.697,464.227c192.828,0,298.298-159.758,298.298-298.298c0-4.537,0-9.055-0.306-13.551
		c20.517-14.841,38.229-33.217,52.305-54.268c-19.135,8.479-39.433,14.039-60.217,16.495c21.887-13.102,38.266-33.71,46.093-57.988
		c-20.58,12.212-43.095,20.818-66.571,25.448c-39.705-42.219-106.116-44.257-148.335-4.553
		c-27.228,25.605-38.781,63.762-30.331,100.17C167.338,173.457,88.8,133.641,35.565,68.146
		C7.739,116.05,21.952,177.332,68.024,208.096c-16.685-0.494-33.004-4.995-47.584-13.122c0,0.429,0,0.878,0,1.329
		c0.014,49.906,35.192,92.889,84.11,102.771c-15.436,4.209-31.629,4.825-47.339,1.8c13.734,42.707,53.094,71.964,97.947,72.806
		c-37.125,29.177-82.984,45.016-130.201,44.968c-8.342-0.019-16.675-0.521-24.957-1.513c47.944,30.768,103.73,47.087,160.697,47.012
		" />
        </g>
    </svg>