<?xml version="1.0" encoding="utf-8"?>
    <!-- Generator: Adobe Illustrator 16.0.4, SVG Export Plug-In . SVG Version: 6.00 Build 0)  -->
    <!DOCTYPE svg PUBLIC "-//W3C//DTD SVG 1.1//EN" "http://www.w3.org/Graphics/SVG/1.1/DTD/svg11.dtd">
    <svg version="1.1" id="Twitch" xmlns="http://www.w3.org/2000/svg" xmlns:xlink="http://www.w3.org/1999/xlink" x="0px" y="0px" width="512px" height="512px" viewBox="0 0 512 512" enable-background="new 0 0 512 512" xml:space="preserve">
        <g id="twitch">
            <path d="M11.4,445.6c0-118.8,0-237.6,0-356.399c0.414-0.731,0.935-1.422,1.227-2.199c9.304-24.738,18.591-49.481,27.864-74.23
	C42.031,8.661,43.499,4.524,45,0.4c152,0,304,0,456,0c0.03,0.731,0.088,1.462,0.088,2.192
	c0.004,102.528,0.001,205.055,0.036,307.583c0,1.6-0.481,2.707-1.606,3.83c-43.353,43.287-86.675,86.604-130.001,129.917
	c-0.33,0.33-0.612,0.739-1,0.972c-0.54,0.321-1.14,0.588-1.749,0.731c-0.506,0.119-1.061,0.026-1.594,0.026
	c-31.865,0-63.73,0.003-95.595-0.011c-1.165-0.001-2.118,0.148-3.037,1.071c-21.825,21.918-43.687,43.8-65.542,65.688
	c-22.267,0-44.533,0-66.8,0c-0.035-2.596-0.099-5.191-0.1-7.787c-0.009-18.857-0.004-37.715-0.008-56.572
	c0-0.764-0.055-1.528-0.087-2.39c-1.142,0-2.004,0-2.867,0c-38.98,0-77.961,0-116.942-0.002
	C13.264,445.649,12.332,445.617,11.4,445.6z M189.758,433.917c0.232,0.133,0.464,0.265,0.696,0.396
	c0.433-0.591,0.797-1.25,1.309-1.763c20.965-20.989,41.954-41.955,62.895-62.968c1.271-1.275,2.511-1.842,4.342-1.839
	c39.133,0.053,78.266,0.029,117.398,0.074c1.809,0.002,3.062-0.537,4.347-1.828c16.31-16.405,32.682-32.748,49.037-49.107
	c8.532-8.533,17.044-17.086,25.618-25.575c1.047-1.036,1.512-2.064,1.42-3.51c-0.104-1.66-0.024-3.332-0.024-4.999
	c0-78.266,0-156.532,0-234.798c0-0.918,0-1.837,0-2.703c-2.165-0.46-365.596-0.396-367.077,0.015
	c-0.378,2.843-0.234,320.869,0.205,322.492c33.177,0,66.416,0,99.834,0C189.758,389.988,189.758,411.953,189.758,433.917z" />
            <path fill-rule="evenodd" clip-rule="evenodd" d="M256.423,267.558c-14.844,0-29.497,0-44.13,0
	c-0.426-1.577-0.476-131.423-0.05-133.398c14.672,0,29.365,0,44.18,0C256.423,178.628,256.423,222.985,256.423,267.558z" />
            <path fill-rule="evenodd" clip-rule="evenodd" d="M334.499,267.493c0-44.432,0-88.843,0-133.35c14.776,0,29.419,0,44.019,0
	c0.081,0.072,0.134,0.113,0.179,0.161c0.045,0.047,0.109,0.098,0.118,0.154c0.041,0.262,0.091,0.527,0.091,0.791
	c0,43.852-0.003,87.705-0.014,131.557c0,0.188-0.089,0.374-0.167,0.687C364.023,267.493,349.329,267.493,334.499,267.493z" />
        </g>
    </svg>