<?xml version="1.0" encoding="utf-8"?>
    <!-- Generator: Adobe Illustrator 16.0.4, SVG Export Plug-In . SVG Version: 6.00 Build 0)  -->
    <!DOCTYPE svg PUBLIC "-//W3C//DTD SVG 1.1//EN" "http://www.w3.org/Graphics/SVG/1.1/DTD/svg11.dtd">
    <svg version="1.1" id="Black" xmlns="http://www.w3.org/2000/svg" xmlns:xlink="http://www.w3.org/1999/xlink" x="0px" y="0px" width="512px" height="512px" viewBox="0 0 512 512" enable-background="new 0 0 512 512" xml:space="preserve">
        <g id="YouTube">
            <g>
                <path fill="none" d="M1,435.796C1,315.864,1,195.932,1,76c170.334,0,340.667,0,511,0c0,119.933,0,239.864,0,359.796
			C341.667,435.796,171.334,435.796,1,435.796z M259.815,435.26c16.153-0.232,35.436-0.483,54.717-0.8
			c12.38-0.203,24.767-0.338,37.14-0.793c23.498-0.864,46.996-1.771,70.476-3.006c9.688-0.509,19.475-1.173,28.96-3.063
			c19.59-3.903,34.907-14.334,44.123-32.497c5.987-11.798,9.569-24.47,11.185-37.547c1.638-13.266,2.626-26.62,3.63-39.955
			c2.435-32.378,1.681-64.818,1.186-97.224c-0.272-17.836-2.077-35.653-3.332-53.469c-0.938-13.311-3.396-26.343-7.896-38.943
			c-3.033-8.491-6.613-16.703-12.758-23.492c-12.012-13.269-27.165-20.411-44.826-21.826c-18.708-1.498-37.461-2.511-56.209-3.423
			c-15.433-0.751-30.886-1.183-46.334-1.51c-21.937-0.463-43.876-0.951-65.815-0.971c-27.596-0.024-55.194,0.374-82.791,0.672
			c-11.052,0.12-22.107,0.31-33.151,0.734c-22.91,0.878-45.823,1.768-68.716,2.998c-9.187,0.494-18.466,1.204-27.455,3.03
			c-18.642,3.787-33.451,13.633-42.716,30.613c-6.672,12.228-10.404,25.568-12.117,39.305c-1.787,14.334-2.945,28.763-3.902,43.182
			c-2.079,31.305-1.498,62.667-0.951,93.995c0.312,17.919,2.103,35.816,3.353,53.716c0.894,12.81,3.243,25.363,7.447,37.525
			c3.164,9.153,6.958,17.988,13.666,25.226c10.124,10.924,22.907,16.82,37.323,19.501c17.944,3.338,36.125,4.247,54.309,4.894
			c22.503,0.8,45.011,1.495,67.522,1.988C209.478,434.637,233.084,434.862,259.815,435.26z" />
                <path fill-rule="evenodd" clip-rule="evenodd" d="M259.815,435.26c-26.732-0.398-50.337-0.623-73.936-1.14
			c-22.511-0.493-45.02-1.188-67.522-1.988c-18.184-0.646-36.364-1.556-54.309-4.894c-14.416-2.681-27.199-8.577-37.323-19.501
			c-6.708-7.237-10.502-16.072-13.666-25.226c-4.204-12.162-6.553-24.716-7.447-37.525c-1.25-17.899-3.04-35.797-3.353-53.716
			c-0.547-31.328-1.128-62.69,0.951-93.995c0.958-14.419,2.116-28.848,3.902-43.182c1.713-13.737,5.444-27.077,12.117-39.305
			c9.266-16.98,24.075-26.826,42.716-30.613c8.989-1.827,18.269-2.536,27.455-3.03c22.894-1.23,45.806-2.12,68.716-2.998
			c11.044-0.424,22.099-0.614,33.151-0.734c27.596-0.299,55.194-0.696,82.791-0.672c21.939,0.02,43.879,0.507,65.815,0.971
			c15.448,0.327,30.901,0.759,46.334,1.51c18.748,0.913,37.501,1.925,56.209,3.423c17.661,1.416,32.814,8.557,44.826,21.826
			c6.145,6.79,9.725,15.001,12.758,23.492c4.501,12.6,6.959,25.632,7.896,38.943c1.255,17.816,3.06,35.633,3.332,53.469
			c0.495,32.406,1.249,64.846-1.186,97.224c-1.004,13.335-1.992,26.689-3.63,39.955c-1.615,13.077-5.197,25.749-11.185,37.547
			c-9.216,18.163-24.533,28.594-44.123,32.497c-9.485,1.891-19.272,2.555-28.96,3.063c-23.479,1.235-46.978,2.142-70.476,3.006
			c-12.373,0.455-24.76,0.59-37.14,0.793C295.251,434.777,275.969,435.028,259.815,435.26z M341.785,250.669
			c-46.129-24.069-91.699-47.846-137.574-71.784c0,47.904,0,95.255,0,143.092C250.073,298.205,295.64,274.588,341.785,250.669z" />
                <path fill-rule="evenodd" clip-rule="evenodd" fill="none" d="M341.785,250.669c-46.146,23.918-91.712,47.536-137.574,71.308
			c0-47.837,0-95.188,0-143.092C250.086,202.823,295.656,226.6,341.785,250.669z" />
            </g>
        </g>
    </svg>